<svg width="156" height="30" viewBox="0 0 156 30" fill="none" xmlns="http://www.w3.org/2000/svg">
<g clip-path="url(#clip0_2006_3)">
<path d="M22.1747 0.152832V16.9077L8.15492 0.152832H0.152344V29.8476H8.15492V13.0928L22.1747 29.8476H30.1773V7.01957L27.2756 0.152832H22.1747Z" fill="white"/>
<path d="M41.3258 9.73584H33.3232V29.8477H41.3258V9.73584Z" fill="white"/>
<path d="M33.3232 6.68386H41.3258L44.0748 0.152832H30.5742L33.3232 6.68386Z" fill="white"/>
<path d="M44.7471 6.31763V6.71438H53.5438V29.8476H61.5464V6.71438H70.7402V0.152832H47.3433L44.7471 6.31763Z" fill="white"/>
<path d="M77.7045 0.152832H73.3672V29.8476H77.7045H81.3392H95.1757V23.2861H81.3392V18.281H92.7322V11.7195H81.3392V6.71438H95.1757V0.152832H77.7045Z" fill="white"/>
<path d="M113.899 29.8171C122.57 29.8171 129.599 23.1765 129.599 14.985C129.599 6.79341 122.57 0.152832 113.899 0.152832C105.228 0.152832 98.1992 6.79341 98.1992 14.985C98.1992 23.1765 105.228 29.8171 113.899 29.8171Z" fill="white"/>
<path d="M154.798 17.4265C153.087 11.8721 140.656 11.2312 140.656 8.02669C140.656 6.95853 141.145 5.85985 144.077 5.85985C149.086 5.85985 154.37 9.15588 154.37 9.15588V2.93004C154.37 2.93004 151.56 0.152832 142.763 0.152832C133.967 0.152832 132.104 4.60858 132.104 8.75914C132.104 10.224 132.317 11.4753 132.867 12.574C134.578 18.1284 147.009 18.7693 147.009 21.9738C147.009 23.0419 146.52 24.1406 143.588 24.1406C138.579 24.1406 133.295 20.8446 133.295 20.8446V27.0704C133.295 27.0704 136.105 29.8476 144.902 29.8476C153.698 29.8476 155.561 25.3919 155.561 21.2413C155.561 19.7764 155.348 18.5252 154.798 17.4265Z" fill="white"/>
</g>
<defs>
<clipPath id="clip0_2006_3">
<rect width="155.714" height="30" fill="white"/>
</clipPath>
</defs>
</svg>
