<svg width="255" height="51" viewBox="0 0 255 51" fill="none" xmlns="http://www.w3.org/2000/svg">
<g clip-path="url(#clip0_2034_678)">
<path d="M0.5 1.29999V49.5H13.2V22.8L35.8 49.5H48.2V12.2L43.5 1.29999H35.8V28L13.2 1.29999H0.5Z" stroke="#616161"/>
<path d="M66.0992 16.7H53.6992V49.7H66.0992V16.7Z" stroke="#616161"/>
<path d="M49.1016 1.29999H70.8016L66.3016 12.6H53.7016L49.1016 1.29999Z" stroke="#616161"/>
<path d="M112.902 12.4V1.29999H76.1016L71.1016 12.4H85.6016V49.5H98.3016V12.4H112.902Z" stroke="#616161"/>
<path d="M117.699 49.7V1.5H152.099V12.1H130.199V20.2H148.299V30.8H130.199V38.7H152.099V49.6H117.699V49.7Z" stroke="#616161"/>
<path d="M206.801 15.5C205.501 12.5 203.601 9.9 201.301 7.6C198.901 5.3 196.101 3.6 192.901 2.3C189.701 1.1 186.201 0.5 182.301 0.5C178.501 0.5 175.001 1.1 171.801 2.3C168.601 3.5 165.701 5.3 163.301 7.6C160.901 9.8 159.101 12.5 157.801 15.5C156.501 18.5 155.801 21.8 155.801 25.4C155.801 29 156.401 32.3 157.801 35.3C159.101 38.3 161.001 41 163.301 43.2C165.701 45.4 168.501 47.2 171.801 48.4C175.001 49.6 178.601 50.2 182.301 50.2C186.101 50.2 189.701 49.6 192.901 48.4C196.101 47.2 198.901 45.4 201.301 43.2C203.701 41 205.501 38.3 206.801 35.3C208.201 32.3 208.801 28.9 208.801 25.3C208.901 21.8 208.201 18.5 206.801 15.5ZM193.501 30.7C192.901 32.3 192.001 33.7 190.901 34.8C189.801 35.9 188.601 36.8 187.101 37.4C185.601 38 184.101 38.3 182.301 38.3C180.601 38.3 179.001 38 177.501 37.4C177.101 37.2 176.701 37.1 176.301 36.8C175.301 36.3 174.401 35.6 173.601 34.8C172.501 33.6 171.701 32.3 171.001 30.7C170.401 29.1 170.101 27.4 170.101 25.4C170.101 24.7 170.101 24 170.201 23.3C170.301 22.1 170.601 21.1 171.001 20.1C171.701 18.5 172.501 17.1 173.601 16C174.701 14.8 176.001 14 177.401 13.4C178.901 12.8 180.501 12.5 182.201 12.5C183.901 12.5 185.501 12.8 187.001 13.4C188.501 14 189.801 14.9 190.801 16C191.901 17.1 192.801 18.4 193.401 20C194.001 21.5 194.401 23.3 194.401 25.3C194.501 27.3 194.201 29.1 193.501 30.7Z" stroke="#616161"/>
<path d="M212.401 42.2V42.4L212.601 42.5C217.401 47.1 224.101 50.1 233.701 50.1C240.101 50.1 245.101 48.5 248.501 45.7C251.901 42.9 253.701 38.8 253.701 34C253.701 29.5 252.001 26.4 249.401 24.2C246.801 22 243.401 20.7 240.101 19.8C238.401 19.3 236.801 19 235.201 18.6C235.101 18.6 235.101 18.6 235.001 18.6C233.501 18.3 232.201 18 231.001 17.6C229.801 17.3 228.801 16.9 228.101 16.4C227.501 16 227.201 15.5 227.201 15C227.201 14.2 227.501 13.5 228.201 13C228.901 12.5 230.001 12.1 231.701 12.1C233.901 12.1 238.001 12.9 241.901 14.2C245.901 15.5 249.701 17.1 251.601 18.6L252.401 19.3V18.2V7.79999V7.59999L252.201 7.49999C247.101 3.09999 240.501 0.899994 232.901 0.899994C220.701 0.899994 213.701 8.09999 213.701 16.3C213.701 20.9 215.401 24.1 218.001 26.4C220.601 28.6 224.001 29.9 227.301 30.8C229.001 31.2 230.601 31.6 232.201 31.9H232.301C233.801 32.2 235.201 32.5 236.501 32.9C237.701 33.2 238.701 33.6 239.401 34.1C240.001 34.5 240.301 35 240.301 35.6C240.301 36.5 239.801 37.3 238.801 37.9C237.801 38.5 236.201 38.9 234.201 38.9C231.101 38.9 226.701 37.6 222.601 35.9C218.501 34.2 214.801 32 213.201 30.4L212.301 29.5V30.7V42.2H212.401Z" stroke="#616161"/>
</g>
<defs>
<clipPath id="clip0_2034_678">
<rect width="254.2" height="50.8" fill="white"/>
</clipPath>
</defs>
</svg>
