<svg width="156" height="30" viewBox="0 0 156 30" fill="none" xmlns="http://www.w3.org/2000/svg">
<g clip-path="url(#clip0_2007_12)">
<path d="M22.1061 0V16.927L8.03302 0H0V30H8.03302V13.073L22.1061 30H30.1392V6.93731L27.2264 0H22.1061Z" fill="white"/>
<path d="M41.3299 9.68164H33.2969V30.0002H41.3299V9.68164Z" fill="white"/>
<path d="M33.2975 6.59815H41.3305L44.09 0H30.5381L33.2975 6.59815Z" fill="white"/>
<path d="M44.7637 6.22816V6.62898H53.5939V30H61.6269V6.62898H70.8557V0H47.3698L44.7637 6.22816Z" fill="white"/>
<path d="M77.8469 0H73.4932V30H77.8469H81.4955H95.3847V23.371H81.4955V18.3145H92.9318V11.6855H81.4955V6.62898H95.3847V0H77.8469Z" fill="white"/>
<path d="M114.179 0C105.472 0 98.4199 6.72148 98.4199 14.9846C98.4199 23.2785 105.472 29.9692 114.179 29.9692C122.887 29.9692 129.939 23.2477 129.939 14.9846C129.969 6.72148 122.887 0 114.179 0ZM114.179 23.4327C109.55 23.4327 105.778 19.6403 105.778 14.9846C105.778 10.3289 109.55 6.53649 114.179 6.53649C118.809 6.53649 122.58 10.3289 122.58 14.9846C122.58 19.6711 118.809 23.4327 114.179 23.4327Z" fill="white"/>
<path d="M155.234 17.4512C153.517 11.8397 141.038 11.1922 141.038 7.95478C141.038 6.87564 141.529 5.76567 144.472 5.76567C149.5 5.76567 154.805 9.09558 154.805 9.09558V2.80576C154.805 2.80576 151.984 0 143.154 0C134.323 0 132.453 4.50154 132.453 8.69476C132.453 10.1747 132.668 11.4388 133.22 12.5488C134.937 18.1603 147.415 18.8078 147.415 22.0452C147.415 23.1244 146.925 24.2343 143.981 24.2343C138.953 24.2343 133.649 20.9044 133.649 20.9044V27.1942C133.649 27.1942 136.47 30 145.3 30C154.13 30 156 25.4985 156 21.3052C156 19.8253 155.786 18.5611 155.234 17.4512Z" fill="white"/>
</g>
<defs>
<clipPath id="clip0_2007_12">
<rect width="156" height="30" fill="white"/>
</clipPath>
</defs>
</svg>
