<svg width="114" height="820" viewBox="0 0 114 820" fill="none" xmlns="http://www.w3.org/2000/svg">
<path fill-rule="evenodd" clip-rule="evenodd" d="M113.904 63.7061L38.3407 18.3328L21.8387 18.3328L21.8386 113.451L113.904 63.7061Z" fill="url(#paint0_linear_2113_2)"/>
<path fill-rule="evenodd" clip-rule="evenodd" d="M22.7925 14.3271C22.8928 14.2283 23.1939 14.0527 23.4447 13.9429C23.8963 13.7454 24.3228 13.7344 30.883 13.7344C37.4809 13.7344 37.8697 13.7454 38.3213 13.9429C38.5721 14.0636 38.9359 14.2941 39.124 14.4697C39.3122 14.6344 39.5505 14.9636 39.6509 15.1941C39.8014 15.5014 39.8516 16.0173 39.8516 19.1124H39.4125C39.0112 19.1124 38.9735 19.1344 38.9735 19.4417C38.9735 19.6173 38.8355 20.0014 38.6725 20.2868C38.5094 20.5832 38.1206 21.0222 37.8195 21.2636C37.531 21.5161 37.0293 21.8454 36.7157 21.999C36.4021 22.1527 35.7248 22.3832 35.2105 22.5039C34.5582 22.6685 33.8934 22.7344 33.053 22.7344C32.3757 22.7344 31.5227 22.6795 31.1715 22.6136C30.8077 22.5478 30.1429 22.3393 29.6914 22.1636C29.2398 21.988 28.6252 21.6588 28.3241 21.4393C28.0231 21.2197 27.6342 20.8136 27.4586 20.5393C27.2705 20.2649 27.0823 19.8368 26.9318 19.1124L21.8517 19.0575L21.8516 17.5659C21.8516 16.608 21.8516 15.0115 22.7925 14.3271ZM29.3276 20.4624C29.0266 20.2429 28.7004 19.9136 28.6001 19.749C28.5123 19.5844 28.437 19.3758 28.437 19.2771C28.437 19.1344 29.0266 19.1124 37.5937 19.1124L37.4558 19.4746C37.393 19.6722 37.1923 19.9905 37.0167 20.188C36.8286 20.4075 36.3519 20.6929 35.8 20.9234C35.2356 21.1649 34.5331 21.3514 33.9561 21.4173C33.2913 21.5051 32.7394 21.5051 32.0997 21.4283C31.598 21.3624 30.8955 21.2197 30.5318 21.099C30.168 20.9783 29.6286 20.6929 29.3276 20.4624Z" fill="white"/>
<path d="M11 820V53.0038C11 26.4471 13 17 25 17" stroke="white"/>
<defs>
<linearGradient id="paint0_linear_2113_2" x1="61.348" y1="91.9113" x2="16.2303" y2="23.1526" gradientUnits="userSpaceOnUse">
<stop stop-color="#1A181D" stop-opacity="0"/>
<stop offset="1" stop-color="#737373" stop-opacity="0.6"/>
</linearGradient>
</defs>
</svg>
