<svg width="133" height="457" viewBox="0 0 133 457" fill="none" xmlns="http://www.w3.org/2000/svg">
<path fill-rule="evenodd" clip-rule="evenodd" d="M132.052 73.9717L56.4892 28.5984L39.9871 28.5984L39.9871 123.716L132.052 73.9717Z" fill="url(#paint0_linear_2099_7)"/>
<path fill-rule="evenodd" clip-rule="evenodd" d="M40.9409 24.5927C41.0412 24.4939 41.3423 24.3183 41.5932 24.2085C42.0447 24.011 42.4712 24 49.0314 24C55.6293 24 56.0181 24.011 56.4697 24.2085C56.7206 24.3293 57.0843 24.5598 57.2725 24.7354C57.4606 24.9 57.699 25.2293 57.7993 25.4598C57.9498 25.7671 58 26.2829 58 29.378H57.561C57.1596 29.378 57.122 29.4 57.122 29.7073C57.122 29.8829 56.984 30.2671 56.8209 30.5524C56.6578 30.8488 56.269 31.2878 55.968 31.5293C55.6795 31.7817 55.1777 32.111 54.8641 32.2646C54.5506 32.4183 53.8732 32.6488 53.3589 32.7695C52.7067 32.9341 52.0419 33 51.2014 33C50.5241 33 49.6711 32.9451 49.3199 32.8793C48.9562 32.8134 48.2914 32.6049 47.8398 32.4293C47.3882 32.2537 46.7736 31.9244 46.4726 31.7049C46.1715 31.4854 45.7827 31.0793 45.6071 30.8049C45.4189 30.5305 45.2308 30.1024 45.0802 29.378L40.0001 29.3232L40 27.8315C40 26.8736 40 25.2772 40.9409 24.5927ZM47.476 30.728C47.175 30.5085 46.8489 30.1793 46.7485 30.0146C46.6607 29.85 46.5855 29.6415 46.5855 29.5427C46.5855 29.4 47.175 29.378 55.7422 29.378L55.6042 29.7402C55.5415 29.9378 55.3408 30.2561 55.1652 30.4537C54.977 30.6732 54.5004 30.9585 53.9485 31.189C53.384 31.4305 52.6816 31.6171 52.1046 31.6829C51.4398 31.7707 50.8879 31.7707 50.2481 31.6939C49.7464 31.628 49.044 31.4854 48.6802 31.3646C48.3165 31.2439 47.7771 30.9585 47.476 30.728Z" fill="white"/>
<path d="M29 457V46.2797C29 32.0588 31 27 43 27" stroke="white"/>
<defs>
<linearGradient id="paint0_linear_2099_7" x1="79.4965" y1="102.177" x2="34.3788" y2="33.4182" gradientUnits="userSpaceOnUse">
<stop stop-color="#1A181D" stop-opacity="0"/>
<stop offset="1" stop-color="#737373" stop-opacity="0.6"/>
</linearGradient>
</defs>
</svg>
