<svg width="25" height="21" viewBox="0 0 25 21" fill="none" xmlns="http://www.w3.org/2000/svg">
<g clip-path="url(#clip0_2066_1663)">
<path d="M23.8 4.9C23.4 4.4 22.9 4.2 22.3 4.1L12.4 3.8C11.9 3.8 11.6 4.1 11.6 4.6C11.6 5 11.9 5.4 12.4 5.4L22.3 5.7C22.5 5.7 22.6 5.8 22.7 5.9C22.8 6 22.8 6.1 22.8 6.3L22.3 9.5H15.6C15.2 9.5 14.8 9.8 14.8 10.3C14.8 10.8 15.1 11.1 15.6 11.1H22L21.6 13.6C21.5 14.1 21.1 14.4 20.7 14.4H9.1C8.8 14.4 8.6 14.2 8.5 13.9L6.3 1.4C6.1 0.6 5.4 0 4.6 0H0.8C0.4 0 0 0.3 0 0.8C0 1.3 0.3 1.6 0.8 1.6H4.6C4.7 1.6 4.7 1.7 4.7 1.7L7 14.1C7.1 14.8 7.6 15.4 8.3 15.7C8 16.2 7.8 16.7 7.8 17.3C7.8 18.9 9.1 20.3 10.8 20.3C12.5 20.3 13.8 19 13.8 17.3C13.8 16.8 13.7 16.3 13.4 15.9H16.4C16.2 16.3 16 16.8 16 17.3C16 18.9 17.3 20.3 19 20.3C20.7 20.3 22 19 22 17.3C22 16.7 21.8 16.2 21.5 15.7C22.3 15.4 22.9 14.7 23.1 13.8L24.3 6.6C24.3 6 24.2 5.4 23.8 4.9ZM12.2 17.2C12.2 18 11.6 18.6 10.8 18.6C10 18.6 9.4 18 9.4 17.2C9.4 16.4 10 15.8 10.8 15.8C11.6 15.8 12.2 16.5 12.2 17.2ZM19 18.6C18.2 18.6 17.6 18 17.6 17.2C17.6 16.4 18.2 15.8 19 15.8C19.8 15.8 20.4 16.4 20.4 17.2C20.4 18 19.8 18.6 19 18.6Z" fill="white"/>
</g>
<defs>
<clipPath id="clip0_2066_1663">
<rect width="24.3" height="20.2" fill="white"/>
</clipPath>
</defs>
</svg>
