<svg width="26" height="21" viewBox="0 0 26 21" fill="none" xmlns="http://www.w3.org/2000/svg">
<mask id="path-1-outside-1_74_272" maskUnits="userSpaceOnUse" x="0" y="-0.5625" width="26" height="22" fill="black">
<rect fill="white" y="-0.5625" width="26" height="22"/>
<path fill-rule="evenodd" clip-rule="evenodd" d="M3.85 0.4375C6.09531 0.4375 6.25938 0.442188 6.42813 0.526563C6.53125 0.578125 6.63437 0.676562 6.68125 0.770312C6.72344 0.859375 7.25312 3.68594 7.90937 7.35156C8.54219 10.8859 9.08594 13.8672 9.11875 13.9844C9.15625 14.1156 9.25 14.2703 9.36719 14.3875C9.47969 14.5094 9.62969 14.6031 9.74219 14.6359C9.87344 14.6734 11.6687 14.6875 15.7656 14.6875C19.4875 14.6875 21.6672 14.6688 21.7797 14.6406C21.8734 14.6125 22.0375 14.5141 22.1453 14.4156C22.2484 14.3219 22.3516 14.1766 22.375 14.1016C22.4031 14.0266 22.5391 13.3375 22.6797 12.5781C22.8203 11.8187 22.9375 11.1672 22.9375 11.1344C22.9375 11.0922 22.2578 11.0781 19.7031 11.0781C17.1297 11.0781 16.4359 11.0641 16.3141 11.0172C16.2344 10.9797 16.1172 10.8906 16.0563 10.8156C15.9859 10.7266 15.9484 10.6188 15.9531 10.5016C15.9531 10.4078 15.9859 10.2625 16.0234 10.1875C16.0609 10.1125 16.1641 10.0094 16.2438 9.9625C16.3844 9.8875 16.675 9.88281 23.1484 9.83594L23.4391 8.24219C23.6359 7.15937 23.7203 6.5875 23.7016 6.46094C23.6875 6.35781 23.6406 6.19844 23.5938 6.10938C23.5469 6.02031 23.4297 5.875 23.3312 5.78594C23.2281 5.69688 23.0734 5.59375 22.9844 5.55156C22.8391 5.48594 22.2578 5.47188 17.9359 5.45312C13.0937 5.42969 13.0516 5.42969 12.9203 5.33125C12.85 5.27969 12.7516 5.15781 12.7047 5.06406C12.6625 4.96562 12.6344 4.83437 12.6484 4.75937C12.6578 4.68906 12.7187 4.57188 12.775 4.49688C12.8359 4.42188 12.9531 4.33281 13.0328 4.29531C13.1594 4.24844 14.1063 4.23438 17.9313 4.23438C22.0469 4.23438 22.7219 4.24375 22.9844 4.30938C23.1531 4.34688 23.4156 4.44531 23.5703 4.52969C23.725 4.60938 23.9922 4.81563 24.1609 4.98438C24.3484 5.17188 24.5266 5.40156 24.6203 5.57969C24.7 5.74375 24.7984 5.99687 24.8359 6.14219C24.8734 6.29219 24.9062 6.55469 24.9062 6.72812C24.9062 6.93906 24.6719 8.30313 24.2266 10.6891C23.8516 12.6953 23.5141 14.4297 23.4719 14.5469C23.4297 14.6641 23.3266 14.8609 23.2469 14.9875C23.1672 15.1141 22.9844 15.3203 22.8438 15.4516C22.7031 15.5781 22.4734 15.7328 22.3375 15.7938C22.2063 15.8547 22.0609 15.9062 22.0234 15.9062C21.9859 15.9062 21.9531 15.9156 21.9531 15.9297C21.9531 15.9438 22.0047 16.0422 22.0656 16.15C22.1312 16.2625 22.225 16.4828 22.2766 16.6422C22.3328 16.8063 22.3891 17.1109 22.4031 17.3219C22.4219 17.5844 22.4078 17.8188 22.3609 18.0391C22.3234 18.2219 22.2203 18.5125 22.1359 18.6953C22.0234 18.9297 21.8781 19.1266 21.625 19.3797C21.3953 19.6141 21.1703 19.7875 20.9781 19.8859C20.8188 19.9656 20.5328 20.0734 20.3453 20.125C20.1625 20.1766 19.8812 20.2188 19.7266 20.2188C19.5719 20.2188 19.2859 20.1766 19.0938 20.1203C18.9016 20.0687 18.5969 19.9469 18.4141 19.8531C18.2266 19.7547 17.9641 19.5531 17.7953 19.3844C17.5797 19.1734 17.4531 18.9906 17.3172 18.7047C17.2141 18.4938 17.1109 18.2078 17.0828 18.0719C17.0547 17.9406 17.0312 17.6828 17.0312 17.5C17.0312 17.3172 17.0594 17.0594 17.0875 16.9234C17.1203 16.7922 17.2234 16.525 17.4766 16H13.8438L14.0312 16.3609C14.1344 16.5672 14.2422 16.8625 14.2703 17.0312C14.3031 17.2094 14.3125 17.4953 14.2984 17.7109C14.2844 17.9172 14.2281 18.2125 14.1766 18.3672C14.125 18.5219 13.9937 18.7844 13.8859 18.9531C13.7781 19.1219 13.5813 19.3609 13.45 19.4828C13.3188 19.6047 13.075 19.7781 12.9062 19.8672C12.7375 19.9516 12.4422 20.0687 12.25 20.1203C12.0578 20.1766 11.7719 20.2188 11.6172 20.2188C11.4625 20.2188 11.1812 20.1766 10.9937 20.125C10.8109 20.0734 10.5437 19.975 10.4078 19.9094C10.2766 19.8391 10.0563 19.6984 9.92969 19.5953C9.79844 19.4922 9.61562 19.3094 9.51719 19.1922C9.41875 19.075 9.27813 18.85 9.20312 18.6953C9.12344 18.5406 9.025 18.2547 8.98281 18.0625C8.93125 17.8141 8.91719 17.6078 8.94062 17.3594C8.95469 17.1672 9.00156 16.9 9.03906 16.7734C9.08125 16.6422 9.18438 16.4031 9.27813 16.2344C9.36719 16.0656 9.43281 15.9297 9.42813 15.9297C9.41875 15.9297 9.2875 15.8688 9.13281 15.7938C8.97813 15.7234 8.77656 15.6016 8.6875 15.5312C8.59844 15.4609 8.44375 15.3016 8.35 15.175C8.25625 15.0484 8.13438 14.8281 8.08281 14.6875C8.02656 14.5422 7.48281 11.6453 6.83594 8.06406C6.20312 4.56719 5.6875 1.69375 5.6875 1.67969C5.6875 1.66562 4.73594 1.65625 3.57812 1.65625C2.19531 1.65625 1.42656 1.6375 1.3375 1.60469C1.26719 1.57656 1.16406 1.51094 1.10313 1.45469C1.01406 1.37031 1 1.3 1 1.07031C1 0.915625 1.02344 0.75625 1.05625 0.709375C1.08906 0.667187 1.19219 0.5875 1.28125 0.535937C1.44063 0.442187 1.49688 0.4375 3.84531 0.4375H3.85ZM10.7781 16.2156C10.6469 16.3 10.4781 16.4734 10.3937 16.5953C10.3141 16.7172 10.2203 16.9047 10.1922 17.0078C10.1547 17.1203 10.1406 17.3406 10.1547 17.5469C10.1688 17.8234 10.2062 17.9547 10.3141 18.1516C10.3891 18.2875 10.5203 18.4656 10.6 18.5359C10.6844 18.6109 10.8391 18.7141 10.9422 18.7656C11.0453 18.8172 11.2422 18.8828 11.3734 18.9062C11.5422 18.9391 11.7063 18.9391 11.8797 18.9062C12.0203 18.8781 12.2219 18.8125 12.325 18.7609C12.4281 18.7094 12.5922 18.5875 12.6906 18.4938C12.7844 18.3953 12.9156 18.2031 12.9813 18.0625C13.0703 17.8703 13.0984 17.7203 13.1031 17.4766C13.1031 17.2578 13.0719 17.0625 13.0094 16.8906C12.9531 16.7359 12.8359 16.5484 12.7141 16.4219C12.6016 16.3047 12.4047 16.1594 12.2781 16.0938C12.1 16.0047 11.9594 15.9766 11.6922 15.9672C11.5 15.9625 11.2656 15.9813 11.1766 16.0047C11.0875 16.0328 10.9047 16.1266 10.7781 16.2156ZM19.075 16.1266C18.9719 16.1828 18.8125 16.3 18.7234 16.3891C18.6344 16.4781 18.5078 16.6563 18.4422 16.7781C18.3578 16.9469 18.3203 17.1016 18.3109 17.3594C18.2969 17.6313 18.3156 17.7719 18.3906 17.9688C18.4422 18.1094 18.5594 18.3109 18.6437 18.4141C18.7328 18.5172 18.9063 18.6578 19.0328 18.7281C19.1594 18.7984 19.3797 18.8781 19.5203 18.9062C19.6984 18.9391 19.8578 18.9391 20.0359 18.9062C20.1766 18.8781 20.3828 18.8078 20.4953 18.7516C20.6078 18.6953 20.7672 18.5734 20.8563 18.4844C20.9406 18.3953 21.0578 18.2359 21.1094 18.1328C21.1656 18.0297 21.2266 17.8281 21.25 17.6875C21.2781 17.5234 21.2734 17.3359 21.2453 17.1719C21.2172 17.0312 21.1562 16.8344 21.1094 16.7359C21.0625 16.6422 20.9406 16.4828 20.8422 16.3844C20.7484 16.2859 20.5609 16.1547 20.4344 16.0938C20.2609 16.0094 20.1109 15.9766 19.8484 15.9672C19.6563 15.9625 19.4453 15.9719 19.3797 15.9953C19.3141 16.0141 19.1781 16.075 19.075 16.1266Z"/>
</mask>
<path fill-rule="evenodd" clip-rule="evenodd" d="M3.85 0.4375C6.09531 0.4375 6.25938 0.442188 6.42813 0.526563C6.53125 0.578125 6.63437 0.676562 6.68125 0.770312C6.72344 0.859375 7.25312 3.68594 7.90937 7.35156C8.54219 10.8859 9.08594 13.8672 9.11875 13.9844C9.15625 14.1156 9.25 14.2703 9.36719 14.3875C9.47969 14.5094 9.62969 14.6031 9.74219 14.6359C9.87344 14.6734 11.6687 14.6875 15.7656 14.6875C19.4875 14.6875 21.6672 14.6688 21.7797 14.6406C21.8734 14.6125 22.0375 14.5141 22.1453 14.4156C22.2484 14.3219 22.3516 14.1766 22.375 14.1016C22.4031 14.0266 22.5391 13.3375 22.6797 12.5781C22.8203 11.8187 22.9375 11.1672 22.9375 11.1344C22.9375 11.0922 22.2578 11.0781 19.7031 11.0781C17.1297 11.0781 16.4359 11.0641 16.3141 11.0172C16.2344 10.9797 16.1172 10.8906 16.0563 10.8156C15.9859 10.7266 15.9484 10.6188 15.9531 10.5016C15.9531 10.4078 15.9859 10.2625 16.0234 10.1875C16.0609 10.1125 16.1641 10.0094 16.2438 9.9625C16.3844 9.8875 16.675 9.88281 23.1484 9.83594L23.4391 8.24219C23.6359 7.15937 23.7203 6.5875 23.7016 6.46094C23.6875 6.35781 23.6406 6.19844 23.5938 6.10938C23.5469 6.02031 23.4297 5.875 23.3312 5.78594C23.2281 5.69688 23.0734 5.59375 22.9844 5.55156C22.8391 5.48594 22.2578 5.47188 17.9359 5.45312C13.0937 5.42969 13.0516 5.42969 12.9203 5.33125C12.85 5.27969 12.7516 5.15781 12.7047 5.06406C12.6625 4.96562 12.6344 4.83437 12.6484 4.75937C12.6578 4.68906 12.7187 4.57188 12.775 4.49688C12.8359 4.42188 12.9531 4.33281 13.0328 4.29531C13.1594 4.24844 14.1063 4.23438 17.9313 4.23438C22.0469 4.23438 22.7219 4.24375 22.9844 4.30938C23.1531 4.34688 23.4156 4.44531 23.5703 4.52969C23.725 4.60938 23.9922 4.81563 24.1609 4.98438C24.3484 5.17188 24.5266 5.40156 24.6203 5.57969C24.7 5.74375 24.7984 5.99687 24.8359 6.14219C24.8734 6.29219 24.9062 6.55469 24.9062 6.72812C24.9062 6.93906 24.6719 8.30313 24.2266 10.6891C23.8516 12.6953 23.5141 14.4297 23.4719 14.5469C23.4297 14.6641 23.3266 14.8609 23.2469 14.9875C23.1672 15.1141 22.9844 15.3203 22.8438 15.4516C22.7031 15.5781 22.4734 15.7328 22.3375 15.7938C22.2063 15.8547 22.0609 15.9062 22.0234 15.9062C21.9859 15.9062 21.9531 15.9156 21.9531 15.9297C21.9531 15.9438 22.0047 16.0422 22.0656 16.15C22.1312 16.2625 22.225 16.4828 22.2766 16.6422C22.3328 16.8063 22.3891 17.1109 22.4031 17.3219C22.4219 17.5844 22.4078 17.8188 22.3609 18.0391C22.3234 18.2219 22.2203 18.5125 22.1359 18.6953C22.0234 18.9297 21.8781 19.1266 21.625 19.3797C21.3953 19.6141 21.1703 19.7875 20.9781 19.8859C20.8188 19.9656 20.5328 20.0734 20.3453 20.125C20.1625 20.1766 19.8812 20.2188 19.7266 20.2188C19.5719 20.2188 19.2859 20.1766 19.0938 20.1203C18.9016 20.0687 18.5969 19.9469 18.4141 19.8531C18.2266 19.7547 17.9641 19.5531 17.7953 19.3844C17.5797 19.1734 17.4531 18.9906 17.3172 18.7047C17.2141 18.4938 17.1109 18.2078 17.0828 18.0719C17.0547 17.9406 17.0312 17.6828 17.0312 17.5C17.0312 17.3172 17.0594 17.0594 17.0875 16.9234C17.1203 16.7922 17.2234 16.525 17.4766 16H13.8438L14.0312 16.3609C14.1344 16.5672 14.2422 16.8625 14.2703 17.0312C14.3031 17.2094 14.3125 17.4953 14.2984 17.7109C14.2844 17.9172 14.2281 18.2125 14.1766 18.3672C14.125 18.5219 13.9937 18.7844 13.8859 18.9531C13.7781 19.1219 13.5813 19.3609 13.45 19.4828C13.3188 19.6047 13.075 19.7781 12.9062 19.8672C12.7375 19.9516 12.4422 20.0687 12.25 20.1203C12.0578 20.1766 11.7719 20.2188 11.6172 20.2188C11.4625 20.2188 11.1812 20.1766 10.9937 20.125C10.8109 20.0734 10.5437 19.975 10.4078 19.9094C10.2766 19.8391 10.0563 19.6984 9.92969 19.5953C9.79844 19.4922 9.61562 19.3094 9.51719 19.1922C9.41875 19.075 9.27813 18.85 9.20312 18.6953C9.12344 18.5406 9.025 18.2547 8.98281 18.0625C8.93125 17.8141 8.91719 17.6078 8.94062 17.3594C8.95469 17.1672 9.00156 16.9 9.03906 16.7734C9.08125 16.6422 9.18438 16.4031 9.27813 16.2344C9.36719 16.0656 9.43281 15.9297 9.42813 15.9297C9.41875 15.9297 9.2875 15.8688 9.13281 15.7938C8.97813 15.7234 8.77656 15.6016 8.6875 15.5312C8.59844 15.4609 8.44375 15.3016 8.35 15.175C8.25625 15.0484 8.13438 14.8281 8.08281 14.6875C8.02656 14.5422 7.48281 11.6453 6.83594 8.06406C6.20312 4.56719 5.6875 1.69375 5.6875 1.67969C5.6875 1.66562 4.73594 1.65625 3.57812 1.65625C2.19531 1.65625 1.42656 1.6375 1.3375 1.60469C1.26719 1.57656 1.16406 1.51094 1.10313 1.45469C1.01406 1.37031 1 1.3 1 1.07031C1 0.915625 1.02344 0.75625 1.05625 0.709375C1.08906 0.667187 1.19219 0.5875 1.28125 0.535937C1.44063 0.442187 1.49688 0.4375 3.84531 0.4375H3.85ZM10.7781 16.2156C10.6469 16.3 10.4781 16.4734 10.3937 16.5953C10.3141 16.7172 10.2203 16.9047 10.1922 17.0078C10.1547 17.1203 10.1406 17.3406 10.1547 17.5469C10.1688 17.8234 10.2062 17.9547 10.3141 18.1516C10.3891 18.2875 10.5203 18.4656 10.6 18.5359C10.6844 18.6109 10.8391 18.7141 10.9422 18.7656C11.0453 18.8172 11.2422 18.8828 11.3734 18.9062C11.5422 18.9391 11.7063 18.9391 11.8797 18.9062C12.0203 18.8781 12.2219 18.8125 12.325 18.7609C12.4281 18.7094 12.5922 18.5875 12.6906 18.4938C12.7844 18.3953 12.9156 18.2031 12.9813 18.0625C13.0703 17.8703 13.0984 17.7203 13.1031 17.4766C13.1031 17.2578 13.0719 17.0625 13.0094 16.8906C12.9531 16.7359 12.8359 16.5484 12.7141 16.4219C12.6016 16.3047 12.4047 16.1594 12.2781 16.0938C12.1 16.0047 11.9594 15.9766 11.6922 15.9672C11.5 15.9625 11.2656 15.9813 11.1766 16.0047C11.0875 16.0328 10.9047 16.1266 10.7781 16.2156ZM19.075 16.1266C18.9719 16.1828 18.8125 16.3 18.7234 16.3891C18.6344 16.4781 18.5078 16.6563 18.4422 16.7781C18.3578 16.9469 18.3203 17.1016 18.3109 17.3594C18.2969 17.6313 18.3156 17.7719 18.3906 17.9688C18.4422 18.1094 18.5594 18.3109 18.6437 18.4141C18.7328 18.5172 18.9063 18.6578 19.0328 18.7281C19.1594 18.7984 19.3797 18.8781 19.5203 18.9062C19.6984 18.9391 19.8578 18.9391 20.0359 18.9062C20.1766 18.8781 20.3828 18.8078 20.4953 18.7516C20.6078 18.6953 20.7672 18.5734 20.8563 18.4844C20.9406 18.3953 21.0578 18.2359 21.1094 18.1328C21.1656 18.0297 21.2266 17.8281 21.25 17.6875C21.2781 17.5234 21.2734 17.3359 21.2453 17.1719C21.2172 17.0312 21.1562 16.8344 21.1094 16.7359C21.0625 16.6422 20.9406 16.4828 20.8422 16.3844C20.7484 16.2859 20.5609 16.1547 20.4344 16.0938C20.2609 16.0094 20.1109 15.9766 19.8484 15.9672C19.6563 15.9625 19.4453 15.9719 19.3797 15.9953C19.3141 16.0141 19.1781 16.075 19.075 16.1266Z" fill="white"/>
<path fill-rule="evenodd" clip-rule="evenodd" d="M3.85 0.4375C6.09531 0.4375 6.25938 0.442188 6.42813 0.526563C6.53125 0.578125 6.63437 0.676562 6.68125 0.770312C6.72344 0.859375 7.25312 3.68594 7.90937 7.35156C8.54219 10.8859 9.08594 13.8672 9.11875 13.9844C9.15625 14.1156 9.25 14.2703 9.36719 14.3875C9.47969 14.5094 9.62969 14.6031 9.74219 14.6359C9.87344 14.6734 11.6687 14.6875 15.7656 14.6875C19.4875 14.6875 21.6672 14.6688 21.7797 14.6406C21.8734 14.6125 22.0375 14.5141 22.1453 14.4156C22.2484 14.3219 22.3516 14.1766 22.375 14.1016C22.4031 14.0266 22.5391 13.3375 22.6797 12.5781C22.8203 11.8187 22.9375 11.1672 22.9375 11.1344C22.9375 11.0922 22.2578 11.0781 19.7031 11.0781C17.1297 11.0781 16.4359 11.0641 16.3141 11.0172C16.2344 10.9797 16.1172 10.8906 16.0563 10.8156C15.9859 10.7266 15.9484 10.6188 15.9531 10.5016C15.9531 10.4078 15.9859 10.2625 16.0234 10.1875C16.0609 10.1125 16.1641 10.0094 16.2438 9.9625C16.3844 9.8875 16.675 9.88281 23.1484 9.83594L23.4391 8.24219C23.6359 7.15937 23.7203 6.5875 23.7016 6.46094C23.6875 6.35781 23.6406 6.19844 23.5938 6.10938C23.5469 6.02031 23.4297 5.875 23.3312 5.78594C23.2281 5.69688 23.0734 5.59375 22.9844 5.55156C22.8391 5.48594 22.2578 5.47188 17.9359 5.45312C13.0937 5.42969 13.0516 5.42969 12.9203 5.33125C12.85 5.27969 12.7516 5.15781 12.7047 5.06406C12.6625 4.96562 12.6344 4.83437 12.6484 4.75937C12.6578 4.68906 12.7187 4.57188 12.775 4.49688C12.8359 4.42188 12.9531 4.33281 13.0328 4.29531C13.1594 4.24844 14.1063 4.23438 17.9313 4.23438C22.0469 4.23438 22.7219 4.24375 22.9844 4.30938C23.1531 4.34688 23.4156 4.44531 23.5703 4.52969C23.725 4.60938 23.9922 4.81563 24.1609 4.98438C24.3484 5.17188 24.5266 5.40156 24.6203 5.57969C24.7 5.74375 24.7984 5.99687 24.8359 6.14219C24.8734 6.29219 24.9062 6.55469 24.9062 6.72812C24.9062 6.93906 24.6719 8.30313 24.2266 10.6891C23.8516 12.6953 23.5141 14.4297 23.4719 14.5469C23.4297 14.6641 23.3266 14.8609 23.2469 14.9875C23.1672 15.1141 22.9844 15.3203 22.8438 15.4516C22.7031 15.5781 22.4734 15.7328 22.3375 15.7938C22.2063 15.8547 22.0609 15.9062 22.0234 15.9062C21.9859 15.9062 21.9531 15.9156 21.9531 15.9297C21.9531 15.9438 22.0047 16.0422 22.0656 16.15C22.1312 16.2625 22.225 16.4828 22.2766 16.6422C22.3328 16.8063 22.3891 17.1109 22.4031 17.3219C22.4219 17.5844 22.4078 17.8188 22.3609 18.0391C22.3234 18.2219 22.2203 18.5125 22.1359 18.6953C22.0234 18.9297 21.8781 19.1266 21.625 19.3797C21.3953 19.6141 21.1703 19.7875 20.9781 19.8859C20.8188 19.9656 20.5328 20.0734 20.3453 20.125C20.1625 20.1766 19.8812 20.2188 19.7266 20.2188C19.5719 20.2188 19.2859 20.1766 19.0938 20.1203C18.9016 20.0687 18.5969 19.9469 18.4141 19.8531C18.2266 19.7547 17.9641 19.5531 17.7953 19.3844C17.5797 19.1734 17.4531 18.9906 17.3172 18.7047C17.2141 18.4938 17.1109 18.2078 17.0828 18.0719C17.0547 17.9406 17.0312 17.6828 17.0312 17.5C17.0312 17.3172 17.0594 17.0594 17.0875 16.9234C17.1203 16.7922 17.2234 16.525 17.4766 16H13.8438L14.0312 16.3609C14.1344 16.5672 14.2422 16.8625 14.2703 17.0312C14.3031 17.2094 14.3125 17.4953 14.2984 17.7109C14.2844 17.9172 14.2281 18.2125 14.1766 18.3672C14.125 18.5219 13.9937 18.7844 13.8859 18.9531C13.7781 19.1219 13.5813 19.3609 13.45 19.4828C13.3188 19.6047 13.075 19.7781 12.9062 19.8672C12.7375 19.9516 12.4422 20.0687 12.25 20.1203C12.0578 20.1766 11.7719 20.2188 11.6172 20.2188C11.4625 20.2188 11.1812 20.1766 10.9937 20.125C10.8109 20.0734 10.5437 19.975 10.4078 19.9094C10.2766 19.8391 10.0563 19.6984 9.92969 19.5953C9.79844 19.4922 9.61562 19.3094 9.51719 19.1922C9.41875 19.075 9.27813 18.85 9.20312 18.6953C9.12344 18.5406 9.025 18.2547 8.98281 18.0625C8.93125 17.8141 8.91719 17.6078 8.94062 17.3594C8.95469 17.1672 9.00156 16.9 9.03906 16.7734C9.08125 16.6422 9.18438 16.4031 9.27813 16.2344C9.36719 16.0656 9.43281 15.9297 9.42813 15.9297C9.41875 15.9297 9.2875 15.8688 9.13281 15.7938C8.97813 15.7234 8.77656 15.6016 8.6875 15.5312C8.59844 15.4609 8.44375 15.3016 8.35 15.175C8.25625 15.0484 8.13438 14.8281 8.08281 14.6875C8.02656 14.5422 7.48281 11.6453 6.83594 8.06406C6.20312 4.56719 5.6875 1.69375 5.6875 1.67969C5.6875 1.66562 4.73594 1.65625 3.57812 1.65625C2.19531 1.65625 1.42656 1.6375 1.3375 1.60469C1.26719 1.57656 1.16406 1.51094 1.10313 1.45469C1.01406 1.37031 1 1.3 1 1.07031C1 0.915625 1.02344 0.75625 1.05625 0.709375C1.08906 0.667187 1.19219 0.5875 1.28125 0.535937C1.44063 0.442187 1.49688 0.4375 3.84531 0.4375H3.85ZM10.7781 16.2156C10.6469 16.3 10.4781 16.4734 10.3937 16.5953C10.3141 16.7172 10.2203 16.9047 10.1922 17.0078C10.1547 17.1203 10.1406 17.3406 10.1547 17.5469C10.1688 17.8234 10.2062 17.9547 10.3141 18.1516C10.3891 18.2875 10.5203 18.4656 10.6 18.5359C10.6844 18.6109 10.8391 18.7141 10.9422 18.7656C11.0453 18.8172 11.2422 18.8828 11.3734 18.9062C11.5422 18.9391 11.7063 18.9391 11.8797 18.9062C12.0203 18.8781 12.2219 18.8125 12.325 18.7609C12.4281 18.7094 12.5922 18.5875 12.6906 18.4938C12.7844 18.3953 12.9156 18.2031 12.9813 18.0625C13.0703 17.8703 13.0984 17.7203 13.1031 17.4766C13.1031 17.2578 13.0719 17.0625 13.0094 16.8906C12.9531 16.7359 12.8359 16.5484 12.7141 16.4219C12.6016 16.3047 12.4047 16.1594 12.2781 16.0938C12.1 16.0047 11.9594 15.9766 11.6922 15.9672C11.5 15.9625 11.2656 15.9813 11.1766 16.0047C11.0875 16.0328 10.9047 16.1266 10.7781 16.2156ZM19.075 16.1266C18.9719 16.1828 18.8125 16.3 18.7234 16.3891C18.6344 16.4781 18.5078 16.6563 18.4422 16.7781C18.3578 16.9469 18.3203 17.1016 18.3109 17.3594C18.2969 17.6313 18.3156 17.7719 18.3906 17.9688C18.4422 18.1094 18.5594 18.3109 18.6437 18.4141C18.7328 18.5172 18.9063 18.6578 19.0328 18.7281C19.1594 18.7984 19.3797 18.8781 19.5203 18.9062C19.6984 18.9391 19.8578 18.9391 20.0359 18.9062C20.1766 18.8781 20.3828 18.8078 20.4953 18.7516C20.6078 18.6953 20.7672 18.5734 20.8563 18.4844C20.9406 18.3953 21.0578 18.2359 21.1094 18.1328C21.1656 18.0297 21.2266 17.8281 21.25 17.6875C21.2781 17.5234 21.2734 17.3359 21.2453 17.1719C21.2172 17.0312 21.1562 16.8344 21.1094 16.7359C21.0625 16.6422 20.9406 16.4828 20.8422 16.3844C20.7484 16.2859 20.5609 16.1547 20.4344 16.0938C20.2609 16.0094 20.1109 15.9766 19.8484 15.9672C19.6563 15.9625 19.4453 15.9719 19.3797 15.9953C19.3141 16.0141 19.1781 16.075 19.075 16.1266Z" stroke="white" stroke-width="0.5" mask="url(#path-1-outside-1_74_272)"/>
</svg>
