<svg width="16" height="16" viewBox="0 0 16 16" fill="none" xmlns="http://www.w3.org/2000/svg">
<path fill-rule="evenodd" clip-rule="evenodd" d="M7.97259 2C8.26689 2 8.5785 2.01154 8.66506 2.02597C8.75162 2.04328 8.97379 2.08367 9.15557 2.11541C9.33734 2.15004 9.66338 2.23371 9.87689 2.30296C10.0904 2.37509 10.4366 2.51359 10.6415 2.61746C10.8464 2.71844 11.1407 2.8829 11.2907 2.98389C11.4407 3.08488 11.6427 3.22914 11.7379 3.30416C11.8331 3.38206 12.0264 3.55807 12.1678 3.69368C12.3063 3.83217 12.5112 4.04857 12.6179 4.17552C12.7247 4.30248 12.9007 4.53619 13.0046 4.69488C13.1113 4.85357 13.2816 5.15076 13.3825 5.3585C13.4864 5.56624 13.6249 5.90959 13.697 6.12311C13.7663 6.33662 13.85 6.654 13.8817 6.83001C13.9134 7.00601 13.9538 7.23107 13.9711 7.33494C13.9885 7.43881 14.0029 7.73022 14.0029 7.98413C14.0029 8.29574 13.9856 8.56408 13.9481 8.80644C13.9163 9.00553 13.8586 9.29695 13.8182 9.45564C13.7778 9.61433 13.7057 9.86247 13.6566 10.0038C13.6076 10.1452 13.4835 10.4338 13.3825 10.6386C13.2844 10.8435 13.1142 11.1435 13.0075 11.3022C12.9007 11.4609 12.742 11.6802 12.6526 11.7927C12.5602 11.9024 12.3698 12.1101 12.2284 12.2544C12.087 12.3958 11.8447 12.6093 11.6946 12.7276C11.5446 12.843 11.3022 13.0103 11.1609 13.0998C11.0195 13.1863 10.7598 13.3277 10.5838 13.4114C10.4078 13.4922 10.1481 13.6018 10.0067 13.6538C9.86535 13.7028 9.62299 13.7749 9.47295 13.8125C9.32291 13.85 9.04015 13.9077 8.84395 13.9423C8.58716 13.9856 8.36211 14 8.00144 14C7.64078 14 7.41861 13.9856 7.15605 13.9394C6.96273 13.9077 6.67997 13.85 6.52994 13.8125C6.3799 13.7749 6.13753 13.7028 5.99615 13.6538C5.85477 13.6047 5.56913 13.4806 5.36139 13.3797C5.15364 13.2787 4.868 13.12 4.72662 13.0277C4.58524 12.9324 4.36307 12.7737 4.23611 12.6699C4.11205 12.5689 3.89565 12.3756 3.76004 12.24C3.62443 12.1044 3.43111 11.888 3.33013 11.7639C3.22626 11.6369 3.06756 11.4148 2.97523 11.2734C2.8829 11.132 2.73575 10.8781 2.65208 10.7107C2.56552 10.5434 2.45011 10.2837 2.39529 10.1337C2.34047 9.98365 2.25968 9.73551 2.2164 9.58548C2.17312 9.43544 2.10964 9.12383 2.06925 8.893C2.01731 8.57273 2 8.36788 2 8.01298C2 7.6956 2.01731 7.43592 2.05771 7.17624C2.08944 6.9685 2.14715 6.67709 2.18755 6.52705C2.22505 6.37701 2.29719 6.13465 2.34624 5.99327C2.39817 5.85189 2.50781 5.59221 2.5886 5.41621C2.67228 5.2402 2.81366 4.98052 2.90022 4.83914C2.98966 4.69776 3.15701 4.4554 3.27242 4.30536C3.39072 4.15533 3.61577 3.90142 3.77447 3.74561C3.93316 3.58692 4.17841 3.36764 4.32267 3.25799C4.46405 3.14835 4.70065 2.98678 4.84203 2.89733C4.98341 2.81077 5.25174 2.66651 5.43352 2.57995C5.61529 2.49339 5.93268 2.36643 6.14042 2.29719C6.34816 2.23082 6.65689 2.15004 6.83289 2.11541C7.0089 2.08367 7.21664 2.04616 7.29454 2.03174C7.37245 2.01731 7.67829 2.00289 7.97259 2V2ZM6.26737 4.91128C6.23852 4.95167 6.2039 5.01803 6.18658 5.06131C6.16639 5.11613 6.15485 5.62683 6.15485 6.57033V7.99856C5.57778 8.01298 5.51142 8.02164 5.44506 8.07069C5.40466 8.10243 5.34119 8.16591 5.30656 8.20919C5.2604 8.27266 5.24597 8.33325 5.24597 8.46021C5.24597 8.58428 5.2604 8.65064 5.30368 8.70834C5.33542 8.74874 5.39889 8.81221 5.44217 8.84684C5.51142 8.89877 5.56913 8.90743 5.84035 8.9132L6.15485 8.92186V9.38351C5.56913 9.39793 5.51142 9.40659 5.44217 9.45852C5.39889 9.49315 5.33542 9.55662 5.30368 9.59702C5.2604 9.65472 5.24597 9.72109 5.24597 9.84516C5.24597 9.97211 5.2604 10.0327 5.30656 10.0962C5.34119 10.1395 5.40466 10.2029 5.44506 10.2347C5.51142 10.2837 5.57778 10.2924 5.84035 10.2981L6.15485 10.3068C6.16927 10.8839 6.17793 10.9502 6.22698 11.0166C6.25872 11.057 6.32219 11.1205 6.36547 11.1551C6.42895 11.2013 6.48954 11.2157 6.61649 11.2157C6.74345 11.2157 6.80404 11.2013 6.86752 11.1551C6.9108 11.1205 6.97427 11.057 7.00601 11.0166C7.05506 10.9502 7.06372 10.8839 7.07237 10.6213L7.07814 10.3068C9.04304 10.2924 9.09786 10.2895 9.17288 10.2347C9.21327 10.2029 9.27675 10.1395 9.31137 10.0962C9.35754 10.0327 9.37196 9.97211 9.37196 9.84516C9.37196 9.7182 9.35754 9.65761 9.31137 9.59413C9.27675 9.55085 9.21327 9.48738 9.17288 9.45564C9.09786 9.40082 9.04304 9.39793 8.08512 9.38928L7.07814 9.38351V8.92186C9.06324 8.90454 9.0892 8.90454 9.29983 8.83241C9.41813 8.79202 9.60567 8.71123 9.7182 8.64775C9.84516 8.5785 10.0096 8.44867 10.1539 8.3044C10.2981 8.16013 10.428 7.99567 10.4972 7.86872C10.5607 7.75908 10.6415 7.56865 10.6819 7.45035C10.7425 7.2628 10.754 7.18201 10.754 6.84443C10.754 6.50685 10.7425 6.42606 10.6819 6.23852C10.6415 6.12022 10.5607 5.92979 10.4972 5.82015C10.428 5.6932 10.2981 5.52873 10.1539 5.38447C10.0096 5.2402 9.84516 5.11036 9.7182 5.04112C9.60567 4.97764 9.41813 4.89685 9.29983 4.85646L9.08343 4.78432C6.80404 4.7699 6.49243 4.77567 6.41452 4.80452C6.3597 4.82472 6.29334 4.87377 6.26737 4.91128ZM7.08103 5.68743L8.97091 5.70474L9.1873 5.81149C9.3258 5.87786 9.44698 5.96441 9.53066 6.05674C9.5999 6.13176 9.698 6.27891 9.74705 6.38278C9.82496 6.55013 9.83361 6.59918 9.83361 6.84443C9.83361 7.08968 9.82496 7.13874 9.74705 7.30608C9.698 7.40995 9.5999 7.55711 9.53066 7.63212C9.44698 7.72445 9.3258 7.81101 8.97091 7.98413L7.07814 7.99856L7.08103 5.68743Z" fill="white"/>
</svg>
