<svg width="21" height="20" viewBox="0 0 21 20" fill="none" xmlns="http://www.w3.org/2000/svg">
<g clip-path="url(#clip0_101_594)">
<path d="M15.1875 6.25H11.125V12.241L13.1832 10.1832C13.3014 10.0709 13.4587 10.0093 13.6217 10.0114C13.7847 10.0135 13.9404 10.0791 14.0556 10.1944C14.1709 10.3096 14.2365 10.4653 14.2386 10.6283C14.2407 10.7913 14.1791 10.9486 14.0668 11.0668L10.9418 14.1918C10.8246 14.3089 10.6657 14.3747 10.5 14.3747C10.3343 14.3747 10.1754 14.3089 10.0582 14.1918L6.9332 11.0668C6.82094 10.9486 6.75928 10.7913 6.76137 10.6283C6.76345 10.4653 6.82912 10.3096 6.94437 10.1944C7.05962 10.0791 7.21534 10.0135 7.37831 10.0114C7.54129 10.0093 7.69863 10.0709 7.8168 10.1832L9.875 12.241V6.25H5.8125C5.23253 6.25062 4.67649 6.48129 4.26639 6.89139C3.85629 7.30149 3.62562 7.85753 3.625 8.4375V16.5625C3.62562 17.1425 3.85629 17.6985 4.26639 18.1086C4.67649 18.5187 5.23253 18.7494 5.8125 18.75H15.1875C15.7675 18.7494 16.3235 18.5187 16.7336 18.1086C17.1437 17.6985 17.3744 17.1425 17.375 16.5625V8.4375C17.3744 7.85753 17.1437 7.30149 16.7336 6.89139C16.3235 6.48129 15.7675 6.25062 15.1875 6.25ZM11.125 1.875C11.125 1.70924 11.0592 1.55027 10.9419 1.43306C10.8247 1.31585 10.6658 1.25 10.5 1.25C10.3342 1.25 10.1753 1.31585 10.0581 1.43306C9.94085 1.55027 9.875 1.70924 9.875 1.875V6.25H11.125V1.875Z" fill="white"/>
</g>
<defs>
<clipPath id="clip0_101_594">
<rect width="20" height="20" fill="white" transform="translate(0.5)"/>
</clipPath>
</defs>
</svg>
