<svg width="50" height="50" viewBox="0 0 50 50" fill="none" xmlns="http://www.w3.org/2000/svg">
<path d="M35.8327 34.75V32.5833C35.8327 30.5642 34.4517 28.8676 32.5827 28.3865M28.791 15.565C30.3791 16.2078 31.4993 17.7648 31.4993 19.5833C31.4993 21.4019 30.3791 22.9588 28.791 23.6017M30.416 34.75C30.416 32.7309 30.416 31.7214 30.0862 30.925C29.6464 29.8633 28.8028 29.0197 27.741 28.5799C26.9446 28.25 25.9351 28.25 23.916 28.25H20.666C18.6469 28.25 17.6374 28.25 16.8411 28.5799C15.7793 29.0197 14.9357 29.8633 14.4959 30.925C14.166 31.7214 14.166 32.7309 14.166 34.75M26.6243 19.5833C26.6243 21.9766 24.6842 23.9167 22.291 23.9167C19.8978 23.9167 17.9577 21.9766 17.9577 19.5833C17.9577 17.1901 19.8978 15.25 22.291 15.25C24.6842 15.25 26.6243 17.1901 26.6243 19.5833Z" stroke="white" stroke-width="2" stroke-linecap="round" stroke-linejoin="round"/>
</svg>
