<svg width="14" height="14" viewBox="0 0 14 14" fill="none" xmlns="http://www.w3.org/2000/svg">
<path d="M5.32706 13.5624C5.25376 13.5625 5.18133 13.5465 5.11487 13.5156C5.04841 13.4847 4.98952 13.4396 4.94235 13.3834C4.89518 13.3273 4.86087 13.2616 4.84183 13.1908C4.82279 13.12 4.81948 13.0459 4.83214 12.9737V12.9707L5.60077 8.74992H2.62495C2.54235 8.74991 2.46144 8.72652 2.39158 8.68245C2.32172 8.63838 2.26576 8.57543 2.23018 8.50089C2.19459 8.42635 2.18084 8.34325 2.19051 8.26122C2.20017 8.17919 2.23286 8.10157 2.2848 8.03734L8.27773 0.628823C8.34594 0.542232 8.44064 0.480367 8.54734 0.452687C8.65404 0.425008 8.76687 0.433038 8.86858 0.475549C8.97028 0.518061 9.05527 0.592715 9.11053 0.688094C9.1658 0.783473 9.1883 0.894328 9.1746 1.00371C9.1746 1.01191 9.17241 1.01984 9.17105 1.02804L8.39968 5.24992H11.375C11.4576 5.24993 11.5385 5.27332 11.6083 5.31739C11.6782 5.36146 11.7341 5.4244 11.7697 5.49895C11.8053 5.57349 11.8191 5.65658 11.8094 5.73861C11.7997 5.82065 11.767 5.89827 11.7151 5.9625L5.72136 13.371C5.67426 13.4305 5.61435 13.4786 5.54608 13.5118C5.47781 13.5449 5.40295 13.5622 5.32706 13.5624Z" fill="white"/>
</svg>
