<svg width="17" height="16" viewBox="0 0 17 16" fill="none" xmlns="http://www.w3.org/2000/svg">
<g clip-path="url(#clip0_2009_29)">
<path d="M12.3 0C10.7 0 9.5 0.8 8.7 1.5C8.7 1.6 8.6 1.7 8.5 1.8C8.4 1.7 8.3 1.6 8.3 1.5C7.6 0.8 6.4 0 4.7 0C2.2 0 0 2.1 0 4.8C0 9.6 3.8 12.9 7.6 15.4C7.9 15.6 8.2 15.7 8.5 15.7C8.8 15.7 9.1 15.6 9.4 15.4C13.2 12.9 17 9.7 17 4.9V4.8C17 2.1 14.9 0 12.3 0ZM8.9 14.6C8.7 14.7 8.4 14.8 8.2 14.6C4.6 12.2 1 9.2 1 4.8C1 2.7 2.7 1 4.7 1C6 1 7 1.7 7.6 2.2C7.8 2.5 8 2.7 8.1 2.9C8.2 3 8.3 3.1 8.5 3.1C8.6 3.1 8.8 3 8.9 2.9C9 2.7 9.2 2.5 9.4 2.2C10 1.7 11 1 12.3 1C14.3 1 16 2.7 16 4.8V4.9C16 9.2 12.4 12.2 8.9 14.6Z" fill="white"/>
</g>
<defs>
<clipPath id="clip0_2009_29">
<rect width="17" height="15.8" fill="white"/>
</clipPath>
</defs>
</svg>
