<svg width="20" height="20" viewBox="0 0 20 20" fill="none" xmlns="http://www.w3.org/2000/svg">
<path d="M10 2.125C6.89465 2.125 4.375 4.39293 4.375 7.1875C4.375 11.6875 10 17.875 10 17.875C10 17.875 15.625 11.6875 15.625 7.1875C15.625 4.39293 13.1054 2.125 10 2.125ZM10 10C9.55499 10 9.11998 9.86804 8.74997 9.62081C8.37996 9.37357 8.09157 9.02217 7.92127 8.61104C7.75097 8.1999 7.70642 7.7475 7.79323 7.31105C7.88005 6.87459 8.09434 6.47368 8.40901 6.15901C8.72368 5.84434 9.12459 5.63005 9.56105 5.54323C9.9975 5.45642 10.4499 5.50097 10.861 5.67127C11.2722 5.84157 11.6236 6.12996 11.8708 6.49997C12.118 6.86998 12.25 7.30499 12.25 7.75C12.2493 8.34654 12.0121 8.91846 11.5903 9.34027C11.1685 9.76209 10.5965 9.99935 10 10Z" fill="white"/>
</svg>
