<svg width="15" height="22" viewBox="0 0 15 22" fill="none" xmlns="http://www.w3.org/2000/svg">
<g clip-path="url(#clip0_420_426)">
<path d="M7.5 0.0703125C3.35953 0.0703125 0 3.09422 0 6.82031C0 12.8203 7.5 21.0703 7.5 21.0703C7.5 21.0703 15 12.8203 15 6.82031C15 3.09422 11.6405 0.0703125 7.5 0.0703125ZM7.5 10.5703C6.90666 10.5703 6.32664 10.3944 5.83329 10.0647C5.33994 9.73508 4.95542 9.26654 4.72836 8.71836C4.5013 8.17019 4.44189 7.56699 4.55764 6.98504C4.6734 6.4031 4.95912 5.86855 5.37868 5.44899C5.79824 5.02944 6.33279 4.74371 6.91473 4.62796C7.49667 4.5122 8.09987 4.57161 8.64805 4.79867C9.19623 5.02574 9.66476 5.41026 9.99441 5.9036C10.3241 6.39695 10.5 6.97697 10.5 7.57031C10.4991 8.3657 10.1828 9.12825 9.62036 9.69068C9.05794 10.2531 8.29538 10.5694 7.5 10.5703Z" fill="white"/>
</g>
<defs>
<clipPath id="clip0_420_426">
<rect width="15" height="21.0469" fill="white" transform="translate(0 0.046875)"/>
</clipPath>
</defs>
</svg>
