<svg width="20" height="20" viewBox="0 0 20 20" fill="none" xmlns="http://www.w3.org/2000/svg">
<path d="M16.125 4H4.875C4.37788 4.00053 3.90128 4.19825 3.54976 4.54976C3.19825 4.90128 3.00053 5.37788 3 5.875V13.9107C3.00053 14.4078 3.19825 14.8844 3.54976 15.236C3.90128 15.5875 4.37788 15.7852 4.875 15.7857H16.125C16.6221 15.7852 17.0987 15.5875 17.4502 15.236C17.8018 14.8844 17.9995 14.4078 18 13.9107V5.875C17.9995 5.37788 17.8018 4.90128 17.4502 4.54976C17.0987 4.19825 16.6221 4.00053 16.125 4ZM15.6502 7.10145L10.8288 10.8515C10.7348 10.9245 10.6191 10.9642 10.5 10.9642C10.3809 10.9642 10.2652 10.9245 10.1712 10.8515L5.34978 7.10145C5.29313 7.05867 5.24555 7.00506 5.2098 6.94374C5.17405 6.88241 5.15085 6.81459 5.14153 6.74422C5.13222 6.67385 5.13699 6.60232 5.15556 6.53381C5.17413 6.4653 5.20613 6.40116 5.2497 6.34512C5.29327 6.28908 5.34754 6.24226 5.40937 6.20737C5.47119 6.17249 5.53933 6.15024 5.60983 6.14192C5.68032 6.1336 5.75177 6.13937 5.82002 6.15891C5.88826 6.17844 5.95195 6.21134 6.00737 6.25569L10.5 9.74989L14.9926 6.25569C15.105 6.17086 15.2462 6.13365 15.3857 6.15211C15.5253 6.17058 15.652 6.24324 15.7384 6.35437C15.8248 6.46551 15.864 6.60619 15.8475 6.74599C15.831 6.8858 15.7601 7.01349 15.6502 7.10145Z" fill="white"/>
</svg>
