<svg width="40" height="40" viewBox="0 0 40 40" fill="none" xmlns="http://www.w3.org/2000/svg">
<path fill-rule="evenodd" clip-rule="evenodd" d="M17.8711 3.00178H19.9248C21.9501 2.9947 21.9855 3.00178 22.2262 3.15757C22.3608 3.24963 22.5449 3.46207 22.637 3.63911C22.7361 3.84447 22.7928 4.08524 22.7928 4.31185C22.7928 4.51013 22.8423 4.85713 22.9061 5.09082C22.9698 5.32451 23.1185 5.70691 23.2389 5.93351C23.3664 6.1672 23.6567 6.54252 23.8904 6.77621C24.1807 7.06655 24.4923 7.28608 24.8818 7.4702C25.2571 7.65431 25.6395 7.7747 26.0148 7.83135C26.461 7.90217 26.6947 7.90217 27.1125 7.83135C27.4099 7.78178 27.8631 7.64015 28.1393 7.5056C28.4155 7.37106 28.812 7.11612 29.0245 6.932C29.2369 6.74788 29.4848 6.56377 29.5768 6.53544C29.6618 6.50003 29.8601 6.47171 30.0159 6.47171C30.1717 6.47171 30.3841 6.5142 30.4974 6.57085C30.6036 6.6275 31.2835 7.27191 32.0129 8.00839C32.7422 8.73778 33.3725 9.42469 33.415 9.53091C33.4504 9.64421 33.4858 9.84249 33.4858 9.97704C33.4858 10.1116 33.4575 10.2957 33.4221 10.3807C33.3937 10.4727 33.2096 10.7206 33.0255 10.933C32.8414 11.1455 32.5865 11.5491 32.4519 11.8182C32.3174 12.0944 32.1757 12.5476 32.1262 12.845C32.0624 13.2629 32.0553 13.5036 32.1262 13.9427C32.1828 14.3322 32.2961 14.6862 32.4873 15.0757C32.6714 15.4581 32.898 15.7768 33.1884 16.0671C33.415 16.3008 33.7974 16.5912 34.024 16.7186C34.2577 16.839 34.633 16.9877 34.8667 17.0514C35.1004 17.1152 35.4545 17.1648 35.6457 17.1648C35.8369 17.1648 36.1272 17.2214 36.283 17.2922C36.4388 17.363 36.6441 17.533 36.9203 17.9083V22.0864L36.7433 22.3272C36.6441 22.4617 36.4388 22.6317 36.283 22.7025C36.1272 22.7733 35.8369 22.8299 35.6457 22.8299C35.4474 22.8299 35.1004 22.8795 34.8667 22.9432C34.633 23.007 34.2506 23.1557 34.024 23.2761C33.7903 23.4035 33.4221 23.6797 33.2096 23.8992C32.9901 24.1117 32.6927 24.5083 32.551 24.7844C32.4094 25.0535 32.2395 25.4784 32.1828 25.7334C32.1191 25.9883 32.0695 26.3494 32.0695 26.5477C32.0695 26.7389 32.0978 27.0788 32.1403 27.2913C32.1828 27.5037 32.3174 27.9003 32.4519 28.1765C32.5794 28.4526 32.8414 28.8492 33.0255 29.0617C33.2096 29.2741 33.3937 29.5219 33.4221 29.6069C33.4575 29.699 33.4858 29.8831 33.4858 30.0177C33.4858 30.1522 33.4504 30.3505 33.415 30.4567C33.3725 30.57 32.7422 31.2569 32.0129 31.9934C31.2835 32.7228 30.5824 33.3672 30.462 33.4238C30.3345 33.4805 30.115 33.523 29.9805 33.523C29.8459 33.523 29.6618 33.4947 29.5697 33.4593C29.4848 33.4309 29.2369 33.2468 29.0245 33.0627C28.812 32.8786 28.4509 32.6378 28.2243 32.5245C28.0047 32.4112 27.6223 32.2696 27.3816 32.2129C27.1337 32.1563 26.7584 32.1067 26.5459 32.1067C26.3335 32.1067 25.9511 32.1563 25.6962 32.22C25.4412 32.2766 25.0163 32.4466 24.7472 32.5882C24.4711 32.7299 24.0745 33.0273 23.8621 33.2468C23.6425 33.4593 23.3664 33.8275 23.2389 34.0612C23.1185 34.2878 22.9698 34.6702 22.9061 34.9039C22.8423 35.1376 22.7928 35.4775 22.7928 35.6616C22.7928 35.8528 22.7361 36.1361 22.6724 36.2989C22.5945 36.4831 22.4387 36.6743 21.9784 37L17.9065 36.9929L17.6445 36.7946C17.5029 36.6884 17.3329 36.476 17.2621 36.3202C17.1913 36.1644 17.1276 35.874 17.1276 35.6828C17.1276 35.4846 17.078 35.1376 17.0143 34.9039C16.9576 34.6702 16.8018 34.2878 16.6814 34.0612C16.554 33.8275 16.2778 33.4593 16.0583 33.2468C15.8458 33.0273 15.4493 32.7299 15.1731 32.5882C14.904 32.4466 14.4791 32.2766 14.2242 32.22C13.9692 32.1563 13.5868 32.1067 13.3744 32.1138C13.1619 32.1138 12.8503 32.135 12.6804 32.1633C12.5104 32.1917 12.3617 32.1988 12.3476 32.1775C12.3334 32.1563 13.3248 31.1365 16.7735 27.6808L17.3542 27.872C17.6799 27.9782 18.2323 28.1127 18.5793 28.1765C18.9263 28.2331 19.5494 28.2827 19.9602 28.2827C20.3709 28.2827 20.9941 28.2331 21.3411 28.1765C21.688 28.1127 22.2687 27.964 22.6157 27.8507C22.9627 27.7303 23.508 27.5037 23.8196 27.3409C24.1312 27.178 24.6269 26.8664 24.9172 26.6469C25.2075 26.4273 25.682 26.0024 25.9653 25.705C26.2414 25.4076 26.6451 24.9048 26.8575 24.5862C27.0629 24.2604 27.3178 23.8284 27.424 23.6302C27.5232 23.4248 27.7002 22.9787 27.8206 22.6387C27.9339 22.2918 28.0755 21.7111 28.1322 21.3428C28.1959 20.9746 28.2455 20.3656 28.2455 19.9973C28.2455 19.6291 28.1959 19.0343 28.1393 18.6873C28.0755 18.3403 27.9764 17.8729 27.9127 17.6605C27.856 17.448 27.6861 17.0019 27.5444 16.669C27.4028 16.3362 27.1125 15.798 26.8929 15.4652C26.6734 15.1324 26.2556 14.6083 25.9653 14.2968C25.6749 13.9852 25.1509 13.5249 24.8039 13.2841C24.4569 13.0362 23.8833 12.6963 23.5363 12.5264C23.1893 12.3564 22.6582 12.1511 22.3679 12.0661C22.0775 11.9811 21.5677 11.8607 21.2348 11.8111C20.902 11.7545 20.3355 11.712 19.9814 11.712C19.6203 11.712 19.075 11.7474 18.7776 11.7899C18.473 11.8324 17.9561 11.9457 17.6233 12.0448C17.2904 12.1369 16.7664 12.3352 16.4548 12.4839C16.1432 12.6255 15.6334 12.9229 15.3218 13.1283C15.0102 13.3407 14.5216 13.7373 14.2312 14.0135C13.9409 14.2826 13.5302 14.75 13.3106 15.0403C13.0911 15.3306 12.7795 15.8264 12.6167 16.1379C12.4538 16.4495 12.2272 16.9948 12.1068 17.3418C11.9935 17.6888 11.8448 18.2695 11.781 18.6165C11.7244 18.9635 11.6748 19.6008 11.6748 20.0328C11.6748 20.4647 11.7102 21.0171 11.7456 21.272C11.7881 21.5269 11.9227 22.0581 12.2767 23.1911L10.0319 25.4359C8.79974 26.6681 7.77292 27.6666 7.75168 27.6454C7.73043 27.6241 7.75168 27.3904 7.80125 27.1142C7.8579 26.7389 7.8579 26.484 7.79417 26.052C7.73751 25.6625 7.62421 25.3085 7.43301 24.919C7.24889 24.5366 7.02228 24.2108 6.73903 23.9276C6.50534 23.6939 6.13002 23.4035 5.89633 23.2761C5.66972 23.1557 5.28732 22.9999 5.05363 22.9432C4.81994 22.8795 4.47295 22.8299 4.27467 22.8299C4.08347 22.8299 3.79313 22.7733 3.63733 22.7025C3.48154 22.6317 3.27618 22.4617 3 22.0864V19.9832C3 17.972 3.00708 17.8729 3.14871 17.6817C3.22661 17.5755 3.43197 17.4126 3.60901 17.3205C3.80729 17.2214 4.04806 17.1648 4.27467 17.1648C4.47295 17.1648 4.81994 17.1152 5.05363 17.0514C5.28732 16.9877 5.66972 16.839 5.89633 16.7186C6.13002 16.5912 6.50534 16.3008 6.73903 16.0671C7.02228 15.7839 7.24889 15.4581 7.43301 15.0757C7.62421 14.6862 7.73751 14.3322 7.79417 13.9427C7.86498 13.5036 7.8579 13.2629 7.79417 12.845C7.7446 12.5476 7.60297 12.0944 7.46842 11.8182C7.33387 11.5491 7.07894 11.1455 6.89482 10.933C6.7107 10.7206 6.52658 10.4727 6.49825 10.3807C6.46285 10.2957 6.43452 10.0974 6.43452 9.94164C6.43452 9.78584 6.46993 9.58756 6.51242 9.4955C6.55491 9.41052 7.18516 8.73778 7.91455 8.00839C8.63686 7.27191 9.31669 6.6275 9.42999 6.57085C9.53621 6.5142 9.74866 6.47171 9.90445 6.47171C10.0602 6.47171 10.2585 6.50003 10.3506 6.53544C10.4356 6.56377 10.6834 6.74788 10.8959 6.932C11.1083 7.11612 11.5119 7.37106 11.781 7.5056C12.0572 7.64015 12.5104 7.78178 12.8079 7.83135C13.2257 7.89509 13.4664 7.90217 13.9055 7.83135C14.295 7.7747 14.649 7.6614 15.0385 7.4702C15.4209 7.28608 15.7467 7.05947 16.0299 6.77621C16.2636 6.54252 16.554 6.1672 16.6814 5.93351C16.8018 5.70691 16.9505 5.32451 17.0143 5.09082C17.078 4.85713 17.1276 4.51722 17.1276 4.3331C17.1276 4.1419 17.1771 3.8728 17.2338 3.73117C17.2904 3.58246 17.4604 3.35585 17.6091 3.23547L17.8711 3.00178ZM20.1372 14.2826C20.6046 14.2968 21.0578 14.3392 21.1428 14.3888C21.2277 14.4313 21.3056 14.5234 21.2986 14.5942C21.2986 14.6579 20.6471 15.3731 18.4022 17.618L18.5439 19.3883C18.6218 20.3656 18.7138 21.187 18.7421 21.2083C18.7634 21.2366 19.429 21.3074 20.208 21.3712C20.987 21.4349 21.7943 21.4986 22.4033 21.5624L23.8762 20.1036C24.6835 19.3034 25.3775 18.6448 25.4129 18.6448C25.4483 18.6448 25.5191 18.7156 25.5687 18.8077C25.6254 18.9139 25.6537 19.3034 25.6537 19.9549C25.6537 20.6843 25.6254 21.0737 25.5333 21.4066C25.4625 21.6615 25.2996 22.0935 25.1721 22.3626C25.0447 22.6387 24.811 23.0495 24.6552 23.2832C24.4994 23.5168 24.117 23.9417 23.8125 24.225C23.4443 24.5578 23.0406 24.8552 22.6511 25.0535C22.3183 25.2235 21.7943 25.4359 21.4827 25.528C21.0011 25.6696 20.7604 25.6909 19.9248 25.6909C19.0608 25.6838 18.8484 25.6555 17.7295 25.3155L12.0997 30.9312C7.10018 35.9095 6.42744 36.5609 6.11585 36.6813C5.88217 36.7663 5.57766 36.8088 5.23067 36.8088C4.79162 36.8088 4.62874 36.7734 4.34548 36.6176C4.1472 36.5185 3.87102 36.3131 3.72939 36.1644C3.58776 36.0157 3.39656 35.7466 3.31159 35.5695C3.17704 35.3217 3.14163 35.1376 3.14163 34.7198C3.14163 34.3728 3.18412 34.0683 3.2691 33.8346C3.38948 33.523 4.04098 32.8502 14.6349 22.2209L14.4508 21.619C14.295 21.1021 14.2666 20.8896 14.2596 20.0257C14.2596 19.1971 14.2808 18.9493 14.4154 18.489C14.5074 18.1845 14.6774 17.7384 14.7978 17.4976C14.9181 17.2497 15.1518 16.8602 15.3218 16.6266C15.4847 16.3929 15.7892 16.0459 16.0016 15.8476C16.207 15.6493 16.5256 15.3944 16.7027 15.274C16.8726 15.1536 17.1913 14.9695 17.4108 14.8562C17.6233 14.75 17.9278 14.6154 18.0836 14.5588C18.2394 14.5021 18.5722 14.4171 18.8271 14.3605C19.1175 14.2968 19.599 14.2684 20.1372 14.2826V14.2826Z" fill="white"/>
</svg>
