<svg width="40" height="40" viewBox="0 0 40 40" fill="none" xmlns="http://www.w3.org/2000/svg">
<path fill-rule="evenodd" clip-rule="evenodd" d="M16.2996 6.6C13.0596 6.6 10.433 9.2266 10.433 12.4667C10.433 15.7067 13.0596 18.3333 16.2996 18.3333C19.5397 18.3333 22.1663 15.7067 22.1663 12.4667C22.1663 9.2266 19.5397 6.6 16.2996 6.6ZM8.83298 12.4667C8.83298 8.34294 12.1759 5 16.2996 5C20.4234 5 23.7663 8.34294 23.7663 12.4667C23.7663 16.5904 20.4234 19.9333 16.2996 19.9333C12.1759 19.9333 8.83298 16.5904 8.83298 12.4667ZM25.5581 5.98443C25.7239 5.57488 26.1903 5.37727 26.5998 5.54305C29.3347 6.65011 31.2663 9.33185 31.2663 12.4667C31.2663 15.6015 29.3347 18.2832 26.5998 19.3903C26.1903 19.5561 25.7239 19.3585 25.5581 18.9489C25.3923 18.5394 25.5899 18.073 25.9995 17.9072C28.151 17.0363 29.6663 14.9275 29.6663 12.4667C29.6663 10.0058 28.151 7.89705 25.9995 7.02615C25.5899 6.86037 25.3923 6.39397 25.5581 5.98443ZM13.7696 25H18.8297C20.3574 25 21.5448 25 22.5018 25.0653C23.4722 25.1315 24.2641 25.2675 24.9903 25.5684C26.8199 26.3262 28.2735 27.7798 29.0313 29.6093C29.3321 30.3356 29.4681 31.1274 29.5344 32.0978C29.5882 32.8877 29.5977 33.8345 29.5993 35H27.9993C27.9975 33.8377 27.9883 32.9424 27.9381 32.2068C27.8774 31.3178 27.7597 30.7204 27.5531 30.2216C26.9576 28.7841 25.8156 27.642 24.3781 27.0466C23.8792 26.8399 23.2819 26.7222 22.3929 26.6616C21.4967 26.6004 20.3637 26.6 18.7996 26.6H13.7997C12.2356 26.6 11.1026 26.6004 10.2064 26.6616C9.31742 26.7222 8.72009 26.8399 8.22124 27.0466C6.78375 27.642 5.64166 28.7841 5.04623 30.2216C4.8396 30.7204 4.72189 31.3178 4.66123 32.2068C4.61104 32.9424 4.60176 33.8377 4.60004 35H3C3.00164 33.8345 3.01105 32.8877 3.06494 32.0978C3.13116 31.1274 3.26718 30.3356 3.56802 29.6093C4.32584 27.7798 5.77941 26.3262 7.60895 25.5684C8.33524 25.2675 9.12705 25.1315 10.0975 25.0653C11.0545 25 12.2419 25 13.7696 25ZM31.3582 25.8106C31.4684 25.3827 31.9045 25.1251 32.3324 25.2353C35.5526 26.0641 37.933 28.9864 37.933 32.4667V35H36.333V32.4667C36.333 29.7341 34.4641 27.4361 31.9336 26.7848C31.5057 26.6746 31.2481 26.2385 31.3582 25.8106Z" fill="white"/>
<path d="M10.2064 26.6616C9.31742 26.7222 8.72009 26.8399 8.22124 27.0466C6.78375 27.642 5.64166 28.7841 5.04623 30.2216C4.8396 30.7204 4.72189 31.3178 4.66123 32.2068C4.61104 32.9424 4.60176 33.8377 4.60004 35H27.9993C27.9975 33.8377 27.9883 32.9424 27.9381 32.2068C27.8774 31.3178 27.7597 30.7204 27.5531 30.2216C26.9576 28.7841 25.8156 27.642 24.3781 27.0466C23.8792 26.8399 23.2819 26.7222 22.3929 26.6616C21.4967 26.6004 20.3637 26.6 18.7996 26.6H13.7997C12.2356 26.6 11.1026 26.6004 10.2064 26.6616Z" fill="white"/>
<path d="M10.433 12.4667C10.433 9.2266 13.0596 6.6 16.2996 6.6C19.5397 6.6 22.1663 9.2266 22.1663 12.4667C22.1663 15.7067 19.5397 18.3333 16.2996 18.3333C13.0596 18.3333 10.433 15.7067 10.433 12.4667Z" fill="white"/>
</svg>
