<svg width="40" height="40" viewBox="0 0 40 40" fill="none" xmlns="http://www.w3.org/2000/svg">
<g clip-path="url(#clip0_2027_659)">
<path fill-rule="evenodd" clip-rule="evenodd" d="M26.1019 0.500092C25.7019 0.300092 25.2019 0.500092 25.1019 0.900092C24.9019 1.30009 25.1019 1.80009 25.5019 2.00009C27.6019 2.90009 29.2019 5.00009 29.2019 7.40009C29.2019 9.90009 27.7019 12.0001 25.5019 12.8001C25.1019 13.0001 24.9019 13.4001 25.1019 13.8001C25.3019 14.2001 25.7019 14.4001 26.1019 14.2001C28.8019 13.1001 30.8019 10.4001 30.8019 7.30009C30.8019 4.30009 28.9019 1.60009 26.1019 0.500092ZM31.9019 20.2001C31.5019 20.1001 31.0019 20.3001 30.9019 20.8001C30.8019 21.3001 31.0019 21.7001 31.5019 21.8001C34.0019 22.5001 35.9019 24.7001 35.9019 27.5001V30.0001H37.5019V27.5001C37.5019 24.0001 35.1019 21.1001 31.9019 20.2001Z" fill="white"/>
<path d="M29.1 30H2.5C2.5 28.8 2.5 27.9 2.6 27.1C2.7 26.1 2.8 25.3 3.1 24.6C3.9 22.8 5.3 21.3 7.1 20.6C7.8 20.3 8.6 20.2 9.6 20.1C10.6 20 11.7 20 13.3 20H18.4C19.9 20 21.1 20 22.1 20.1C23.1 20.2 23.9 20.3 24.6 20.6C26.4 21.4 27.9 22.8 28.6 24.6C28.9 25.3 29 26.1 29.1 27.1C29.1 27.9 29.1 28.8 29.1 30Z" fill="white"/>
<path d="M23.3008 7.5C23.3008 11.6 20.0008 15 15.8008 15C11.6008 15 8.30078 11.7 8.30078 7.5C8.30078 3.4 11.7008 0 15.8008 0C19.9008 0 23.3008 3.3 23.3008 7.5Z" fill="white"/>
<path d="M5.7 32V36.5L2.1 32H0V40H2.1V35.5L5.7 40H7.8V33.8L7 32H5.7Z" fill="white"/>
<path d="M10.6 34.6001H8.5V40.0001H10.6V34.6001Z" fill="white"/>
<path d="M8.50078 33.8H10.6008L11.3008 32H7.80078L8.50078 33.8Z" fill="white"/>
<path d="M11.5 33.7V33.8H13.8V40H15.9V33.8H18.3V32H12.3L11.5 33.7Z" fill="white"/>
<path d="M19.9984 32H18.8984V40H19.9984H20.8984H24.4984V38.2H20.8984V36.9H23.7984V35.1H20.8984V33.8H24.4984V32H19.9984Z" fill="white"/>
<path d="M29.3008 32C27.1008 32 25.3008 33.8 25.3008 36C25.3008 38.2 27.1008 40 29.3008 40C31.5008 40 33.3008 38.2 33.3008 36C33.3008 33.8 31.5008 32 29.3008 32ZM29.3008 38.2C28.1008 38.2 27.1008 37.2 27.1008 35.9C27.1008 34.6 28.1008 33.6 29.3008 33.6C30.5008 33.6 31.5008 34.6 31.5008 35.9C31.4008 37.2 30.5008 38.2 29.3008 38.2Z" fill="white"/>
<path d="M39.8 36.7001C39.4 35.2001 36.2 35.0001 36.2 34.2001C36.2 33.9001 36.3 33.6001 37.1 33.6001C38.4 33.6001 39.7 34.5001 39.7 34.5001V32.8001C39.7 32.8001 39 32.1001 36.7 32.1001C34.4 32.1001 34 33.3001 34 34.4001C34 34.8001 34.1 35.1001 34.2 35.4001C34.6 36.9001 37.8 37.1001 37.8 37.9001C37.8 38.2001 37.7 38.5001 36.9 38.5001C35.6 38.5001 34.3 37.6001 34.3 37.6001V39.3001C34.3 39.3001 35 40.0001 37.3 40.0001C39.6 40.0001 40 38.8001 40 37.7001C40 37.3001 39.9 36.9001 39.8 36.7001Z" fill="white"/>
</g>
<defs>
<clipPath id="clip0_2027_659">
<rect width="40" height="40" fill="white"/>
</clipPath>
</defs>
</svg>
