<svg width="40" height="40" viewBox="0 0 40 40" fill="none" xmlns="http://www.w3.org/2000/svg">
<path fill-rule="evenodd" clip-rule="evenodd" d="M20.2988 4.00149C20.3758 4.00919 20.5222 4.0554 20.63 4.09391C20.7378 4.14011 22.3704 4.72541 27.692 6.6122L27.6766 10.1162C27.6612 13.0658 27.6381 13.7127 27.5303 14.1671C27.4609 14.4597 27.3146 14.9834 27.1991 15.3223C27.0913 15.6611 26.8448 16.2541 26.66 16.6315C26.4675 17.0088 26.1363 17.5787 25.913 17.8945C25.6974 18.2102 25.2584 18.7416 24.9426 19.0805C24.6269 19.4193 24.1032 19.8891 23.7875 20.1278C23.4717 20.3666 22.8941 20.7285 22.5168 20.9441C22.1317 21.1521 21.4771 21.4447 20.2834 21.8529L19.4748 21.5371C19.0281 21.36 18.3889 21.0597 18.0501 20.8671C17.7112 20.6669 17.1721 20.3203 16.8564 20.0816C16.5406 19.8429 16.0016 19.3654 15.6627 19.0265C15.3238 18.68 14.8541 18.1101 14.6153 17.7481C14.3766 17.3862 14.0685 16.8702 13.9299 16.593C13.7913 16.3157 13.5603 15.7458 13.4216 15.3223C13.283 14.8987 13.1136 14.2056 13.0443 13.782C12.9596 13.189 12.9288 12.2803 12.9288 6.6199L16.4867 5.3569C18.4505 4.6638 20.0755 4.0785 20.1063 4.0477C20.1448 4.0169 20.2295 3.99379 20.2988 4.00149ZM19.7058 14.1671C17.6419 12.1109 17.4802 11.9722 17.2568 11.9722C17.0874 11.9722 16.9411 12.0338 16.8179 12.1648C16.6947 12.288 16.6253 12.442 16.6253 12.6037C16.6253 12.8271 16.7871 13.0196 18.0347 14.2595C19.3131 15.5456 19.4594 15.6688 19.7058 15.6688C19.9523 15.6688 20.1525 15.4917 22.6092 13.0273C24.9966 10.6476 25.2507 10.3704 25.2507 10.1394C25.2507 9.97763 25.1814 9.8236 25.0582 9.70038C24.9349 9.57717 24.7809 9.50785 24.6192 9.50785C24.3959 9.50785 24.1263 9.74659 22.0393 11.8336L19.7058 14.1671ZM16.8179 23.062L17.8575 25.6034L17.2337 29.9006C16.8949 32.2649 16.6331 34.2749 16.6562 34.3673C16.6793 34.4675 17.072 34.8294 17.588 35.2299C18.0732 35.6149 18.4736 35.9461 18.4736 35.9615C18.4736 35.9846 15.1171 36 7 36V32.8271C7 29.7697 7.0077 29.6234 7.18483 28.8379C7.28494 28.3989 7.49288 27.752 7.6469 27.4132C7.80863 27.082 8.08587 26.5737 8.2707 26.2965C8.45553 26.0269 8.82519 25.5803 9.09473 25.3107C9.35657 25.0335 9.74933 24.6869 9.96496 24.5252C10.1729 24.3635 10.5734 24.1093 10.8506 23.963C11.1278 23.809 11.5976 23.6011 11.9057 23.4932C12.2137 23.3854 12.7374 23.2468 13.0608 23.1852C13.392 23.1313 15.1467 23.0774 16.8179 23.062ZM23.826 23.0466L26.1352 23.0851C26.9438 23.1159 27.6292 23.1775 27.945 23.2545C28.2222 23.3238 28.6689 23.4624 28.9461 23.5703C29.2234 23.6704 29.7085 23.9091 30.0243 24.0939C30.34 24.2865 30.7944 24.6022 31.0254 24.8102C31.2642 25.0181 31.6415 25.3877 31.8649 25.6419C32.0882 25.896 32.4271 26.3658 32.6119 26.6815C32.7967 27.005 33.0201 27.4517 33.1125 27.6827C33.1972 27.9214 33.3589 28.4374 33.459 28.8379C33.6362 29.5541 33.6439 29.6542 33.6439 36H28.3531C25.4421 36 22.0932 35.9769 22.1317 35.9384C22.1702 35.9076 22.6015 35.5687 23.079 35.1914C23.5564 34.814 23.9646 34.4367 23.9877 34.3442C24.0108 34.2595 23.749 32.2649 22.7863 25.6034L23.826 23.0466ZM20.3065 23.0697C22.0085 23.0697 22.4706 23.0928 22.4475 23.1621C22.4321 23.216 22.2626 23.6319 21.7467 24.918H18.8972L18.5584 24.0939C18.3735 23.6319 18.2041 23.216 18.181 23.1621C18.1502 23.0851 18.6046 23.0697 20.3065 23.0697ZM19.0204 26.1502H21.6311L21.6696 26.3966C21.6927 26.5352 21.9315 28.2295 22.2087 30.1548C22.486 32.0801 22.7093 33.7204 22.7093 33.7898C22.7093 33.8745 22.2318 34.298 20.2834 35.8383L19.1359 34.8987C18.5044 34.3904 17.9731 33.913 17.95 33.8514C17.9269 33.7898 18.1425 32.1263 18.4274 30.1548C18.7047 28.1833 18.9588 26.4736 18.9819 26.3581L19.0204 26.1502Z" fill="white"/>
</svg>
