<svg width="40" height="40" viewBox="0 0 40 40" fill="none" xmlns="http://www.w3.org/2000/svg">
<g clip-path="url(#clip0_2027_626)">
<path d="M19.6667 19.1111C21.6303 19.1111 23.2222 17.5192 23.2222 15.5556C23.2222 13.5919 21.6303 12 19.6667 12C17.703 12 16.1111 13.5919 16.1111 15.5556C16.1111 17.5192 17.703 19.1111 19.6667 19.1111Z" fill="white"/>
<path d="M18.3333 22.6667H21C22.6567 22.6667 23.485 22.6667 24.1384 22.9373C25.0096 23.2982 25.7018 23.9904 26.0627 24.8616C26.3333 25.515 26.3333 26.3433 26.3333 28H13C13 26.3433 13 25.515 13.2707 24.8616C13.6315 23.9904 14.3237 23.2982 15.1949 22.9373C15.8483 22.6667 16.6767 22.6667 18.3333 22.6667Z" fill="white"/>
<path d="M19.6667 19.1111C21.6303 19.1111 23.2222 17.5192 23.2222 15.5556C23.2222 13.5919 21.6303 12 19.6667 12C17.703 12 16.1111 13.5919 16.1111 15.5556C16.1111 17.5192 17.703 19.1111 19.6667 19.1111Z" stroke="white" stroke-width="0.8" stroke-linecap="round" stroke-linejoin="round"/>
<path d="M18.3333 22.6667H21C22.6567 22.6667 23.485 22.6667 24.1384 22.9373C25.0096 23.2982 25.7018 23.9904 26.0627 24.8616C26.3333 25.515 26.3333 26.3433 26.3333 28H13C13 26.3433 13 25.515 13.2707 24.8616C13.6315 23.9904 14.3237 23.2982 15.1949 22.9373C15.8483 22.6667 16.6767 22.6667 18.3333 22.6667Z" stroke="white" stroke-width="0.8" stroke-linecap="round" stroke-linejoin="round"/>
<path fill-rule="evenodd" clip-rule="evenodd" d="M20 0.00126838C20.6514 -0.00708235 20.7599 0.0179698 21.3779 0.318596C21.8455 0.544066 22.1545 0.761185 22.405 1.04511C22.6054 1.27058 22.856 1.63801 22.9645 1.87183C23.0731 2.0973 23.1983 2.51484 23.2401 2.79041C23.2902 3.06599 23.2902 3.50022 23.2568 3.75075C23.2234 4.00127 23.1148 4.39375 23.0146 4.62757C22.9144 4.85304 22.6889 5.21212 22.5219 5.41254C22.3549 5.62131 22.0209 5.90524 21.7954 6.05555C21.5616 6.20586 21.2192 6.37288 20.6681 6.54824V8.09313C20.6681 9.52945 20.6597 9.65471 20.501 9.83008C20.4092 9.93029 20.2505 10.0388 20.142 10.0639C20.0418 10.089 19.8497 10.0555 19.7077 9.98874C19.5658 9.92194 19.4321 9.80503 19.3904 9.72987C19.357 9.65471 19.3319 8.9115 19.3319 6.54824L18.9812 6.43968C18.7808 6.37288 18.4301 6.20586 18.2046 6.05555C17.9708 5.90524 17.6451 5.62131 17.4781 5.41254C17.3111 5.21212 17.0856 4.85304 16.9854 4.62757C16.8852 4.39375 16.7766 4.01797 16.7349 3.7925C16.7015 3.55033 16.7015 3.14114 16.7516 2.83217C16.7933 2.53154 16.9353 2.0806 17.0522 1.83008C17.1775 1.57956 17.4614 1.19542 17.6785 0.969953C17.9123 0.744483 18.3382 0.452208 18.6806 0.285193C19.2234 0.0263205 19.3653 0.00126838 20 0.00126838ZM3.59081 16.7612C3.81628 16.7779 4.21712 16.8781 4.46764 16.97C4.71816 17.0702 5.07724 17.2622 5.26096 17.4042C5.44468 17.5462 5.73695 17.8468 5.91232 18.0806C6.07933 18.3061 6.2881 18.6902 6.51357 19.3666H8.05846C9.14405 19.375 9.64509 19.4 9.73695 19.4752C9.81211 19.5336 9.91232 19.6672 9.97077 19.7841C10.0292 19.9011 10.0543 20.0764 10.0292 20.185C10.0042 20.2852 9.89562 20.4439 9.78706 20.5357C9.62004 20.6944 9.49478 20.7027 6.51357 20.7027L6.40501 21.0535C6.3382 21.2539 6.18789 21.5796 6.05428 21.7883C5.92902 21.9971 5.65344 22.3144 5.45303 22.4898C5.26096 22.6735 4.88518 22.9157 4.63466 23.0242C4.38413 23.1411 3.9666 23.2581 3.71608 23.2915C3.46555 23.3249 3.03132 23.3249 2.75574 23.2748C2.48017 23.233 2.04593 23.0994 1.79541 22.9825C1.54489 22.8572 1.16075 22.5733 0.943633 22.3562C0.718163 22.1391 0.417537 21.7048 0.275574 21.3958C0.0250522 20.8781 0 20.7612 0 20.0347C0 19.3082 0.0250522 19.1912 0.275574 18.6819C0.417537 18.3645 0.718163 17.9303 0.943633 17.7132C1.16075 17.4961 1.54489 17.2121 1.79541 17.0869C2.04593 16.9616 2.46347 16.828 2.71399 16.7862C2.96451 16.7445 3.36534 16.7361 3.59081 16.7612ZM36.952 16.7528C37.1608 16.7695 37.5198 16.8447 37.7453 16.9031C37.9791 16.97 38.3466 17.1453 38.572 17.2956C38.7975 17.4459 39.1065 17.7215 39.2568 17.9052C39.4071 18.089 39.6326 18.4647 39.7662 18.7403C39.975 19.1829 40 19.3332 40 20.0347C40 20.7278 39.9666 20.8948 39.7662 21.329C39.6326 21.6046 39.4071 21.9804 39.2568 22.1641C39.1065 22.3478 38.7975 22.6234 38.572 22.7654C38.3466 22.9157 37.9791 23.0994 37.7453 23.1745C37.5198 23.2414 37.0438 23.3082 36.7015 23.3082C36.2505 23.3082 35.9332 23.2497 35.5741 23.1161C35.2985 23.0075 34.8977 22.7821 34.6806 22.6067C34.4551 22.4313 34.1545 22.0889 33.9958 21.8551C33.8372 21.613 33.6618 21.2539 33.4864 20.7027H31.9415C30.5052 20.7027 30.38 20.6944 30.2046 20.5357C30.1044 20.4439 29.9958 20.2852 29.9708 20.185C29.9457 20.0764 29.9791 19.8844 30.0459 19.7424C30.1127 19.6088 30.2296 19.4668 30.3048 19.4334C30.38 19.3917 31.1232 19.3666 33.4864 19.3666L33.595 19.0159C33.6618 18.8155 33.8288 18.4731 33.9791 18.2393C34.1294 18.0138 34.4134 17.6798 34.6221 17.5128C34.8225 17.3457 35.1733 17.1203 35.4071 17.0201C35.6326 16.9198 35.9916 16.8113 36.2004 16.7779C36.4092 16.7445 36.7432 16.7278 36.952 16.7528ZM19.9749 29.972C20.0334 29.972 20.1837 30.0221 20.3173 30.089C20.4426 30.1474 20.5679 30.2643 20.6096 30.3395C20.643 30.4146 20.6681 31.1578 20.6681 33.5211L21.0188 33.6297C21.2192 33.6965 21.5783 33.8718 21.8205 34.0305C22.0543 34.1892 22.3967 34.4898 22.572 34.7153C22.7474 34.9324 22.9729 35.3332 23.0814 35.6088C23.215 35.9679 23.2735 36.2852 23.2735 36.7361C23.2735 37.0785 23.2067 37.5545 23.1399 37.78C23.0647 38.0138 22.881 38.3812 22.7307 38.6067C22.5887 38.8322 22.3132 39.1411 22.1294 39.2915C21.9457 39.4418 21.5449 39.6756 21.2359 39.8176C20.7516 40.0347 20.5678 40.0764 20 40.0764C19.4238 40.0764 19.2484 40.0347 18.7307 39.8009C18.3466 39.6338 17.9624 39.375 17.6952 39.1161C17.4697 38.8823 17.1775 38.4898 17.0522 38.2393C16.9353 37.9887 16.7933 37.5378 16.7516 37.2372C16.7015 36.9282 16.7015 36.519 16.7349 36.2768C16.7766 36.0514 16.8852 35.6756 16.9854 35.4418C17.0856 35.2163 17.3111 34.8572 17.4781 34.6568C17.6451 34.448 17.9791 34.1641 18.2046 34.0138C18.4384 33.8635 18.7808 33.6965 19.3319 33.5211V31.9762C19.3319 30.8489 19.357 30.3979 19.4321 30.2977C19.4906 30.2226 19.6159 30.1224 19.7077 30.0723C19.7996 30.0221 19.9248 29.972 19.9833 29.972H19.9749Z" fill="white"/>
</g>
<defs>
<clipPath id="clip0_2027_626">
<rect width="40" height="40" fill="white"/>
</clipPath>
</defs>
</svg>
