<svg width="40" height="40" viewBox="0 0 40 40" fill="none" xmlns="http://www.w3.org/2000/svg">
<path fill-rule="evenodd" clip-rule="evenodd" d="M19.8738 3C20.3934 3 21.143 3.02969 21.5363 3.07422C21.9371 3.11875 22.5828 3.21523 22.9688 3.29688C23.3547 3.37852 24.0746 3.57891 24.5645 3.74219C25.0543 3.90547 25.8188 4.21719 26.2715 4.43242C26.7242 4.65508 27.3922 5.03359 27.7559 5.27109C28.1195 5.51602 28.6836 5.9168 28.9953 6.16914C29.3145 6.42148 29.8414 6.89648 30.168 7.22305C30.4945 7.54961 30.9695 8.07656 31.2219 8.38828C31.4742 8.70742 31.875 9.26406 32.1199 9.63516C32.3574 10.0063 32.7285 10.6594 33.3223 11.8914L34.6359 11.8988C35.3633 11.8988 36.1352 11.9359 36.343 11.9805C36.5582 12.025 36.9367 12.166 37.1816 12.2922C37.4266 12.4184 37.7977 12.6855 38.0055 12.8934C38.2133 13.1012 38.473 13.4574 38.5918 13.6801C38.7031 13.9027 38.8441 14.2367 38.8961 14.4223C38.9777 14.6746 39 15.3945 39 17.4281C39 19.3875 38.9703 20.1965 38.9035 20.4711C38.8516 20.6789 38.7254 21.0129 38.6289 21.2133C38.5324 21.4211 38.2504 21.7848 38.0055 22.0371C37.7457 22.2895 37.3746 22.5715 37.1445 22.6754C36.9219 22.7867 36.5879 22.9055 36.4023 22.95C36.2168 22.9945 35.4523 23.0316 33.3223 23.0316L32.9437 23.8332C32.7359 24.2711 32.2906 25.0281 31.9641 25.518C31.6375 26.0078 31.0734 26.7426 30.7098 27.1508C30.3461 27.559 29.7152 28.1676 29.3145 28.509C28.9062 28.8504 28.2902 29.318 27.9414 29.548C27.5926 29.7781 26.8949 30.1789 26.3828 30.4313C25.8707 30.691 25.0172 31.0324 24.4902 31.2031C23.9633 31.3738 23.4809 31.5223 23.4289 31.5371C23.3621 31.5594 23.3398 31.8117 23.3398 32.4574C23.3398 32.9473 23.3027 33.5262 23.2582 33.7414C23.2137 33.9492 23.0875 34.3129 22.9836 34.5355C22.8723 34.773 22.6051 35.1367 22.3453 35.3965C22.0855 35.6488 21.7145 35.9309 21.4844 36.0348C21.2617 36.1461 20.9277 36.2648 20.7422 36.3094C20.5566 36.3539 20.2227 36.391 20 36.391C19.7773 36.391 19.4211 36.3465 19.2207 36.2945C19.0129 36.2426 18.6789 36.1164 18.4785 36.0199C18.2707 35.9234 17.907 35.6414 17.6547 35.3965C17.3875 35.1219 17.1277 34.773 17.009 34.5207C16.8977 34.2832 16.7715 33.8453 16.7195 33.5559C16.6527 33.1328 16.6527 32.9027 16.7195 32.5168C16.7715 32.2348 16.9051 31.8191 17.0238 31.5891C17.1426 31.3516 17.3578 31.025 17.4914 30.8617C17.6324 30.6984 17.9145 30.4535 18.1148 30.3199C18.3152 30.1863 18.6641 30.0082 18.8867 29.9266C19.191 29.8078 19.5844 29.7559 20.4082 29.7039C21.0168 29.6742 21.8555 29.5777 22.2637 29.4961C22.6719 29.4219 23.3398 29.2437 23.748 29.1176C24.1562 28.984 24.7945 28.7391 25.1582 28.5684C25.5219 28.3902 26.1305 28.0637 26.4941 27.841C26.8578 27.6109 27.4813 27.1582 27.8672 26.8316C28.2531 26.5125 28.8172 25.9633 29.1215 25.6219C29.4184 25.2805 29.8562 24.7164 30.0863 24.3676C30.3238 24.0187 30.6207 23.5363 30.7543 23.2914C30.8953 23.0465 31.1477 22.4973 31.3258 22.0668C31.4965 21.6363 31.7266 20.9535 31.8379 20.5453C31.9418 20.1371 32.0754 19.4246 32.1348 18.9645C32.1941 18.5117 32.2461 17.8512 32.2461 17.5023C32.2461 17.1535 32.209 16.5449 32.1645 16.1441C32.1273 15.7508 32.0383 15.1719 31.9715 14.8676C31.9121 14.5633 31.7562 14.0066 31.6375 13.643C31.5113 13.2793 31.2738 12.6707 31.1031 12.307C30.925 11.9434 30.643 11.4016 30.4648 11.1195C30.2941 10.8375 29.9973 10.3996 29.8117 10.1547C29.6262 9.90977 29.2773 9.49414 29.0473 9.22695C28.8098 8.95977 28.3496 8.50703 28.0156 8.225C27.6816 7.94297 27.1473 7.52734 26.8355 7.31211C26.5238 7.09687 25.8707 6.71836 25.3809 6.48086C24.891 6.23594 24.1859 5.93906 23.8223 5.82031C23.4586 5.70156 22.7906 5.53086 22.3379 5.44922C21.8852 5.36016 21.0836 5.26367 20.5566 5.24141C19.9703 5.21172 19.2578 5.23398 18.7383 5.29336C18.2707 5.33789 17.5211 5.47148 17.0684 5.59023C16.6156 5.70156 15.9031 5.93164 15.4727 6.10234C15.0422 6.26562 14.3594 6.59961 13.9512 6.82969C13.543 7.06719 12.9418 7.46055 12.6152 7.70547C12.2961 7.95039 11.7617 8.41797 11.4277 8.74453C11.1012 9.07109 10.6113 9.62031 10.3441 9.96914C10.077 10.318 9.70586 10.8523 9.51289 11.1566C9.32734 11.4609 9.03789 11.9953 8.88203 12.3441C8.71875 12.693 8.50352 13.2422 8.39961 13.5687C8.28828 13.8953 8.13984 14.4445 8.0582 14.7934C7.97656 15.1422 7.87266 15.7508 7.83555 16.1516C7.79102 16.5449 7.75391 17.1461 7.75391 17.4801C7.75391 17.8215 7.79102 18.4004 7.82812 18.7641C7.87266 19.1277 7.9543 19.6992 8.02109 20.0258C8.08789 20.3523 8.30312 21.1391 8.50352 21.7699C8.70391 22.4008 8.86719 22.9426 8.86719 22.9797C8.86719 23.0094 7.75391 23.0316 6.3957 23.0316C4.60703 23.0316 3.82773 23.002 3.56055 22.9352C3.35273 22.8832 3.04102 22.7645 2.85547 22.6828C2.66992 22.5938 2.35078 22.3785 2.15039 22.193C1.94258 22.0148 1.67539 21.7031 1.5418 21.5027C1.41563 21.3023 1.2375 20.9238 1.15586 20.6566C1.00742 20.2039 1 20.0184 1 17.5023C1 15.5355 1.02969 14.734 1.09648 14.4594C1.15586 14.2516 1.31172 13.873 1.45273 13.6133C1.59375 13.3461 1.86836 12.9973 2.07617 12.8043C2.27656 12.6262 2.63281 12.3813 2.85547 12.2699C3.07812 12.1586 3.4418 12.025 3.64961 11.9805C3.86484 11.9359 4.6293 11.8988 6.64062 11.8988L6.90781 11.3199C7.04883 11.0082 7.32344 10.4813 7.51641 10.1547C7.70938 9.82813 8.10273 9.2418 8.39219 8.85586C8.67422 8.46992 9.20859 7.83906 9.57969 7.45312C9.94336 7.07461 10.5594 6.50312 10.9453 6.19141C11.3312 5.87969 11.9695 5.42695 12.3555 5.18203C12.7414 4.94453 13.3945 4.58828 13.8027 4.39531C14.2109 4.19492 14.9457 3.90547 15.4355 3.74219C15.9254 3.57891 16.675 3.37852 17.1055 3.28945C17.5359 3.20039 18.1223 3.10391 18.4043 3.07422C18.6863 3.03711 19.3469 3.00742 19.8664 3L19.8738 3ZM20.3414 7.49023C20.9945 7.50508 21.6254 7.57188 22.0484 7.66836C22.4121 7.75 22.9688 7.89844 23.273 8.00234C23.5773 8.10625 24.1117 8.32891 24.4605 8.49961C24.8094 8.67773 25.3438 8.98203 25.648 9.18984C25.9523 9.39023 26.5758 9.92461 27.0285 10.3773C27.5555 10.9043 28.023 11.4535 28.3422 11.9359C28.6094 12.3441 28.9434 12.9305 29.0844 13.2348C29.2254 13.5391 29.4258 14.0586 29.5297 14.3852C29.6336 14.7117 29.7746 15.2609 29.8488 15.6098C29.9527 16.0773 29.9898 16.5598 29.9898 17.4652C29.9898 18.3484 29.9527 18.868 29.8562 19.3207C29.782 19.6695 29.6262 20.2559 29.5074 20.6195C29.3813 20.9832 29.1437 21.5695 28.973 21.9184C28.7949 22.2672 28.4832 22.8016 28.2828 23.1059C28.075 23.4102 27.6074 23.9668 27.2438 24.3527C26.8801 24.7387 26.2938 25.2656 25.9449 25.5328C25.5961 25.7926 24.9504 26.1859 24.4977 26.4086C24.0449 26.6312 23.466 26.8836 23.1988 26.9727C22.9316 27.0617 22.4121 27.2027 22.0484 27.2844C21.4102 27.4328 21.143 27.4402 9.98789 27.4848V25.2953L10.3219 25.2359C10.5074 25.2063 10.7895 25.1172 10.9527 25.0355C11.116 24.9539 11.3684 24.7758 11.5168 24.6422C11.6652 24.516 11.8656 24.2488 12.1402 23.6996L11.7246 23.0836C11.4945 22.7496 11.1902 22.2449 11.0418 21.9555C10.9008 21.666 10.6559 21.05 10.5 20.5824C10.3441 20.1074 10.166 19.3504 10.0918 18.8754C10.0027 18.2594 9.98047 17.7621 10.0102 17.0941C10.0324 16.582 10.1066 15.8992 10.1734 15.5727C10.2402 15.2461 10.3813 14.7117 10.4852 14.3852C10.5891 14.0586 10.7895 13.5391 10.9305 13.2348C11.0715 12.9305 11.398 12.3516 11.6652 11.9508C11.925 11.5574 12.4148 10.9414 12.7488 10.5926C13.0902 10.2363 13.5652 9.79844 13.8102 9.60547C14.0551 9.41992 14.5375 9.08594 14.8863 8.8707C15.2352 8.65547 15.8512 8.35117 16.2594 8.18789C16.6676 8.03203 17.2836 7.83164 17.6324 7.74258C17.9813 7.65352 18.5008 7.55703 18.7828 7.51992C19.0648 7.48281 19.7699 7.46797 20.3414 7.49023V7.49023ZM14.441 18.5785H16.6676V16.352H14.441V18.5785ZM18.8941 18.5785H21.1207V16.352H18.8941V18.5785ZM23.3473 18.5785H25.5738V16.352H23.3473V18.5785Z" fill="white"/>
</svg>
