<svg width="40" height="40" viewBox="0 0 40 40" fill="none" xmlns="http://www.w3.org/2000/svg">
<path fill-rule="evenodd" clip-rule="evenodd" d="M22.4438 6L22.8333 6.22667C23.0954 6.38958 23.2867 6.57375 23.4354 6.8075C23.5771 7.04833 23.655 7.275 23.6692 7.51583C23.6833 7.71417 23.4213 10.3492 23.0813 13.3667C22.5358 18.3321 22.4579 18.8917 22.3021 19.2317C22.1958 19.4513 22.0187 19.6779 21.8629 19.7983C21.7142 19.9046 21.4875 20.025 21.3458 20.0746C21.1971 20.1242 20.6729 20.1596 20 20.1596C19.3271 20.1596 18.8029 20.1242 18.6542 20.0746C18.5125 20.025 18.2858 19.9046 18.1371 19.7983C17.9813 19.6779 17.8042 19.4513 17.6979 19.2317C17.5421 18.8917 17.4713 18.3321 16.9188 13.4021C16.5858 10.3988 16.3167 7.80625 16.3167 7.62917C16.3167 7.43792 16.3804 7.17583 16.4867 6.95625C16.5788 6.765 16.7629 6.51708 16.8975 6.41792C17.025 6.31875 17.2233 6.18417 17.3438 6.12042C17.5279 6.02125 17.8892 6.00708 22.4438 6ZM19.9646 26.4071C33.5079 26.4 35.5904 26.4142 35.8667 26.4992C36.0721 26.57 36.2917 26.7258 36.49 26.9312C36.6529 27.1083 36.8371 27.3704 36.8938 27.5121C36.9717 27.7033 37 28.0221 37 28.5746C37 29.0137 36.9717 29.4388 36.9292 29.5167C36.8867 29.5946 36.5396 29.8142 36.15 30.0125C35.7604 30.2037 35.1654 30.48 34.8183 30.6217C34.4783 30.7704 33.7842 31.0254 33.2813 31.1954C32.7783 31.3654 31.9 31.6346 31.3333 31.7904C30.7667 31.9462 29.7679 32.18 29.1021 32.3146C28.4363 32.4492 27.4658 32.6262 26.9417 32.7042C26.4175 32.775 25.5038 32.8883 24.9229 32.945C24.335 33.0017 23.4425 33.0867 22.9396 33.1292C22.3446 33.1858 21.1263 33.2071 19.5042 33.1788C17.9458 33.1646 16.5292 33.1008 15.7854 33.03C15.1267 32.9662 14.0217 32.8317 13.3417 32.7325C12.6617 32.6404 11.6204 32.4633 11.0396 32.3429C10.4517 32.2296 9.545 32.0171 9.02083 31.8825C8.49667 31.7479 7.61833 31.4858 7.07292 31.3087C6.5275 31.1317 5.74833 30.8554 5.3375 30.6854C4.92667 30.5225 4.26792 30.2179 3.86417 30.0196C3.4675 29.8213 3.11333 29.5946 3.07083 29.5167C3.02833 29.4388 3 29.035 3 28.61C3 28.1921 3.0425 27.7246 3.085 27.5687C3.14167 27.3987 3.31167 27.1437 3.53125 26.9312C3.7225 26.7329 3.99875 26.5346 4.13333 26.4921C4.31042 26.4354 8.8225 26.4142 19.9646 26.4071ZM15.1267 8.47917C15.1975 8.47917 15.2542 8.52167 15.2542 8.57125C15.2542 8.61375 15.5092 10.9512 15.8208 13.7562C16.1325 16.5612 16.4158 18.9979 16.4654 19.175C16.5079 19.3521 16.6283 19.6496 16.7275 19.8408C16.8338 20.0321 17.0958 20.3508 17.3083 20.5492C17.5421 20.7687 17.8679 20.9883 18.1229 21.0875C18.5267 21.2575 18.6188 21.2646 20 21.2646C21.3813 21.2646 21.4733 21.2575 21.8771 21.0875C22.1321 20.9883 22.4579 20.7687 22.6917 20.5492C22.9042 20.3508 23.1663 20.0321 23.2725 19.8408C23.3717 19.6496 23.4921 19.3521 23.5346 19.175C23.5842 18.9979 23.8675 16.5612 24.1792 13.7562C24.4908 10.9512 24.7458 8.60667 24.7458 8.55C24.7458 8.465 24.7883 8.45792 24.9725 8.50042C25.1 8.52875 25.5888 8.71292 26.0563 8.90417C26.5238 9.1025 27.2746 9.46375 27.7208 9.71875C28.1671 9.97375 28.5708 10.2217 28.6204 10.2712C28.6842 10.335 28.4079 11.355 27.3667 14.8187C26.3183 18.2896 26.0208 19.3662 26.0208 19.6708C26.0208 19.8975 26.0775 20.1808 26.1554 20.3437C26.2263 20.4996 26.375 20.7192 26.4883 20.8325C26.6017 20.9388 26.8213 21.0946 26.9771 21.1725C27.1613 21.2717 27.4092 21.3213 27.6854 21.3213C28.0325 21.3283 28.1813 21.2929 28.5 21.1158C28.7597 20.9694 28.9557 20.7924 29.0879 20.5846C29.2154 20.3792 29.6475 19.0617 30.3771 16.625C30.9792 14.6204 31.4963 12.9204 31.5246 12.8496C31.5742 12.7433 31.6592 12.8142 32.0842 13.31C32.3604 13.6358 32.8279 14.245 33.1183 14.6771C33.4088 15.1092 33.7983 15.7467 33.9896 16.0937C34.1808 16.4408 34.4854 17.0996 34.6696 17.5458C34.8538 17.9921 35.0946 18.6933 35.215 19.1042C35.3283 19.515 35.4629 20.0037 35.5054 20.2021C35.5479 20.3933 35.6329 20.875 35.6967 21.2646C35.7604 21.6542 35.8313 22.7167 35.9021 25.2667H4.09792L4.1475 23.5879C4.17583 22.405 4.23958 21.6471 4.33875 21.0521C4.41667 20.5846 4.56542 19.8833 4.67167 19.4937C4.77083 19.1042 4.96208 18.4808 5.10375 18.1125C5.23833 17.7442 5.53583 17.0571 5.7625 16.5896C5.98917 16.1221 6.4425 15.3429 6.76833 14.8542C7.09417 14.3654 7.59708 13.6854 7.8875 13.3383C8.34083 12.8071 8.42583 12.7292 8.47542 12.8425C8.50375 12.9204 9.02083 14.6204 9.62292 16.625C10.3525 19.0617 10.7846 20.3792 10.9121 20.5846C11.0443 20.7924 11.2403 20.9694 11.5 21.1158C11.8188 21.2929 11.9675 21.3283 12.3146 21.3213C12.5908 21.3213 12.8388 21.2717 13.0229 21.1725C13.1788 21.0946 13.3983 20.9388 13.5117 20.8325C13.625 20.7192 13.7738 20.4996 13.8446 20.3437C13.9225 20.1808 13.9792 19.8975 13.9792 19.6708C13.9792 19.3662 13.6817 18.2896 11.2946 10.3562L11.4646 10.2146C11.5567 10.1367 11.9958 9.87458 12.435 9.63375C12.8742 9.39292 13.6321 9.03167 14.1208 8.84042C14.6096 8.64208 15.0629 8.47917 15.1267 8.47917Z" fill="white"/>
</svg>
