<svg width="40" height="40" viewBox="0 0 40 40" fill="none" xmlns="http://www.w3.org/2000/svg">
<path d="M17.6322 5.38788C17.9372 5.28367 18.4579 5.14224 18.7851 5.0827C19.1868 5.00826 19.6777 4.98593 20.2728 5.00826C20.905 5.03059 21.3885 5.09758 21.9091 5.23157C22.3182 5.33577 22.9579 5.56652 23.3224 5.74516C23.6869 5.92381 24.2075 6.23643 24.4753 6.43741C24.7431 6.64583 25.1522 7.00311 25.3902 7.24875C25.6282 7.48694 25.9704 7.88889 26.1489 8.13452C26.3274 8.38015 26.6249 8.9012 26.8109 9.28826C26.9894 9.67532 27.22 10.2782 27.3092 10.6281C27.458 11.164 27.4803 11.4469 27.4803 12.489C27.4803 13.5385 27.458 13.8139 27.3092 14.3498C27.22 14.6997 27.0191 15.2505 26.8629 15.578C26.7142 15.9055 26.4538 16.3744 26.2976 16.6201C26.134 16.8657 25.7323 17.3495 25.4051 17.6919C25.0778 18.0343 24.5274 18.5033 24.1778 18.734C23.8282 18.9648 23.2926 19.2625 22.9877 19.3891C22.6827 19.523 22.1249 19.7017 21.7604 19.791C21.2174 19.925 20.8827 19.9622 20.0124 19.9548C19.105 19.9548 18.8223 19.925 18.2273 19.7687C17.8405 19.6645 17.2678 19.4635 16.9628 19.3221C16.6578 19.1881 16.1521 18.9052 15.8471 18.7043C15.5421 18.4958 15.0586 18.0939 14.7686 17.811C14.4859 17.5282 14.0545 17.0071 13.8239 16.6573C13.5933 16.3075 13.3181 15.8311 13.214 15.5929C13.1099 15.3621 12.9313 14.8783 12.8272 14.521C12.6636 13.9925 12.6264 13.665 12.5892 12.7867C12.5669 11.9456 12.5818 11.566 12.6859 11.0747C12.7528 10.7248 12.909 10.174 13.028 9.84652C13.1471 9.51901 13.4297 8.9533 13.6603 8.58113C13.8909 8.20895 14.233 7.73257 14.4264 7.50927C14.6124 7.28596 15.0363 6.8989 15.3636 6.63094C15.6909 6.37042 16.2116 6.02802 16.5165 5.8717C16.8215 5.70795 17.3273 5.49209 17.6322 5.38788Z" fill="white"/>
<path d="M1.32668 24.5176C1.468 24.4357 2.1895 24.0859 2.92587 23.7509L4.27217 23.1406L6.48129 23.1331C7.82015 23.1331 8.75735 23.1629 8.84661 23.2076C8.92843 23.2522 9.04744 23.3862 9.10694 23.5053C9.16645 23.6244 9.21851 23.7956 9.21851 23.8775C9.21851 23.9593 9.17388 24.1157 9.11438 24.2273C9.05487 24.3464 8.83917 24.5325 8.61603 24.6516C8.39288 24.7707 7.93172 25.1577 7.58213 25.5076C7.10609 25.984 6.87551 26.2892 6.67468 26.706C6.51848 27.0112 6.3474 27.4801 6.28046 27.7481C6.22095 28.016 6.14658 28.5817 6.11682 29.0135C6.07219 29.7206 6.04988 29.8174 5.6631 30.2416L3.32753 30.264C1.02172 30.2863 0.999403 30.2863 0.672126 30.1151C0.441545 29.996 0.292783 29.8397 0.166335 29.6089C-0.0121793 29.2814 -0.0121797 29.2368 0.0101347 27.7853L0.0101683 27.7831C0.0324491 26.304 0.0325648 26.2964 0.26303 25.8128C0.38204 25.5448 0.62006 25.1801 0.783698 25.0014C0.939898 24.8302 1.19279 24.6069 1.32668 24.5176Z" fill="white"/>
<path d="M12.6115 24.2273C13.8388 23.6765 14.8876 23.2076 14.9545 23.1852C15.014 23.1629 15.5049 23.1406 16.0479 23.1406C16.5909 23.1331 17.1264 23.1703 17.238 23.215C17.3496 23.2522 17.5355 23.3788 17.6471 23.4904C17.7661 23.6021 17.9372 23.9072 18.0413 24.1752C18.138 24.4432 18.3165 24.7781 18.4355 24.9196C18.5471 25.061 18.8223 25.2694 19.0455 25.3885C19.3802 25.5522 19.5438 25.5895 20.0124 25.5895C20.4736 25.5895 20.6372 25.5522 20.9719 25.3885C21.1951 25.2694 21.4703 25.061 21.5819 24.9196C21.7009 24.7781 21.8794 24.4432 21.9761 24.1752C22.0951 23.8626 22.2513 23.6021 22.4224 23.4457C22.5711 23.3192 22.7943 23.1852 22.9282 23.1629C23.0621 23.1406 23.605 23.1331 25.1075 23.1778L27.3018 24.1603C28.5067 24.7037 29.6448 25.2396 29.8307 25.3438C30.0092 25.4555 30.3886 25.7607 30.6638 26.0286C31.0283 26.3785 31.2588 26.6911 31.4746 27.1154C31.6456 27.4429 31.8241 27.9267 31.8837 28.1947C31.9506 28.5296 31.9803 29.3261 31.9803 30.8371C31.9878 32.9287 31.9803 33.0032 31.8167 33.3307C31.6903 33.5763 31.5638 33.7103 30.9836 34.0006H9.04121L8.7065 33.8368C8.48336 33.7252 8.31228 33.5689 8.20071 33.3679C8.03707 33.0776 8.03707 33.0106 8.03707 30.8744V30.8743C8.03707 29.3261 8.06682 28.5371 8.13377 28.1947C8.19327 27.9267 8.37179 27.4429 8.54286 27.1154C8.72138 26.773 9.0189 26.3487 9.24205 26.118C9.45775 25.9021 9.7999 25.6044 10.0082 25.4704C10.209 25.3364 11.3842 24.7707 12.6115 24.2273Z" fill="white"/>
<path d="M30.8123 23.7063C30.8346 23.5276 30.9239 23.3788 31.0503 23.282C31.2363 23.1406 31.3627 23.1331 35.6917 23.1331L37.0454 23.736C37.7892 24.071 38.5405 24.4357 38.7041 24.5474C38.8678 24.659 39.1132 24.8823 39.2546 25.0387C39.3959 25.195 39.6116 25.5448 39.738 25.8128L39.7454 25.8287C39.9613 26.2968 39.9689 26.3131 39.9909 27.7853C40.0132 29.2368 40.0058 29.2814 39.8347 29.6089C39.7083 29.8397 39.5521 29.996 39.3289 30.1151C39.0017 30.2863 38.9719 30.2863 34.338 30.2416L34.1371 30.0183C33.9512 29.8174 33.9289 29.7206 33.8768 29.0135C33.847 28.5817 33.7727 28.016 33.7132 27.7481C33.6537 27.4801 33.4751 27.0112 33.3264 26.706C33.1429 26.3388 32.8652 25.9592 32.4933 25.5671C32.1512 25.2098 31.7421 24.8674 31.452 24.6962C31.147 24.525 30.9313 24.339 30.8644 24.205C30.8049 24.071 30.7825 23.8775 30.8123 23.7063Z" fill="white"/>
<path d="M5.16474 13.4938C5.4102 13.3747 5.84161 13.2184 6.1317 13.1514C6.41435 13.077 6.88295 13.0174 7.17303 13.0174C7.45568 13.0174 7.92428 13.0621 8.21437 13.1216C8.49702 13.1812 9.01768 13.3747 9.36728 13.5459C9.85075 13.7841 10.126 13.9851 10.5574 14.4168C10.9888 14.856 11.1896 15.1239 11.4202 15.6152C11.5913 15.9651 11.7772 16.434 11.8293 16.6573C11.8814 16.8806 11.926 17.3644 11.926 17.7366C11.926 18.1013 11.8814 18.5926 11.8293 18.8159C11.7772 19.0392 11.5913 19.5081 11.4202 19.858C11.1896 20.3493 10.9888 20.6172 10.5574 21.0564C10.126 21.4881 9.85075 21.6891 9.36728 21.9273C9.01768 22.0985 8.48214 22.292 8.17718 22.359C7.7904 22.4409 7.41105 22.4632 6.94989 22.4409C6.57055 22.4185 6.06476 22.3292 5.79698 22.2399C5.52921 22.1506 5.15731 21.9943 4.97879 21.8901C4.79284 21.7859 4.473 21.5625 4.27217 21.3988C4.0639 21.2276 3.7515 20.9224 3.58043 20.7214C3.40191 20.513 3.16389 20.1557 3.04488 19.9324C2.92587 19.7091 2.7548 19.2551 2.67298 18.9276C2.58372 18.5703 2.51678 18.0939 2.51678 17.7366C2.51678 17.3793 2.58372 16.9029 2.67298 16.5456C2.7548 16.2181 2.92587 15.7641 3.04488 15.5408C3.16389 15.3175 3.40191 14.9602 3.58043 14.7518C3.7515 14.5434 4.07878 14.2233 4.30936 14.0446C4.53251 13.8586 4.91929 13.6129 5.16474 13.4938Z" fill="white"/>
<path d="M30.6338 13.5459C30.9759 13.3673 31.4817 13.1812 31.7495 13.1291C32.0098 13.0695 32.4561 13.0174 32.7313 13.0174C33.0065 13.01 33.4751 13.0621 33.7727 13.1291C34.0702 13.1961 34.5611 13.3673 34.8735 13.5162C35.2975 13.7171 35.5801 13.933 36.0636 14.4168C36.5248 14.8783 36.7777 15.2058 36.9636 15.578C37.1124 15.8608 37.2909 16.367 37.3578 16.6945C37.462 17.1411 37.4843 17.4686 37.4545 17.9971C37.4322 18.3991 37.3504 18.9127 37.2611 19.1881C37.1793 19.456 36.9785 19.8803 36.8223 20.1408C36.6735 20.3939 36.3462 20.8108 36.1008 21.0564C35.8553 21.302 35.4314 21.637 35.171 21.7933C34.9033 21.9496 34.4644 22.1506 34.2041 22.2399C33.9289 22.3292 33.4231 22.4185 33.0512 22.4409C32.5826 22.4632 32.2032 22.4409 31.8239 22.359C31.5115 22.292 30.9759 22.0985 30.6338 21.9273C30.1429 21.6891 29.8677 21.4881 29.4362 21.0564C29.0048 20.6172 28.804 20.3493 28.5734 19.858C28.4024 19.5081 28.2238 19.0392 28.1643 18.8159C28.1123 18.5926 28.0676 18.1013 28.0676 17.7366C28.0676 17.3644 28.1123 16.8806 28.1643 16.6573C28.2238 16.434 28.4024 15.9651 28.5734 15.6152C28.804 15.1239 29.0048 14.856 29.4362 14.4168C29.8677 13.9851 30.1429 13.7841 30.6338 13.5459Z" fill="white"/>
</svg>
