<svg width="20" height="20" viewBox="0 0 20 20" fill="none" xmlns="http://www.w3.org/2000/svg">
<path d="M13.1659 3.16356C12.4709 2.41321 11.5002 2 10.4287 2C9.3516 2 8.37767 2.41071 7.68589 3.15642C6.98661 3.91035 6.6459 4.93498 6.7259 6.0414C6.88447 8.22425 8.54553 9.99995 10.4287 9.99995C12.3119 9.99995 13.9701 8.22461 14.1312 6.04212C14.2123 4.9457 13.8694 3.9232 13.1659 3.16356ZM16.7144 17.9999H4.14305C3.97851 18.002 3.81555 17.9675 3.66604 17.8987C3.51654 17.83 3.38424 17.7287 3.27877 17.6024C3.04663 17.3249 2.95306 16.946 3.02235 16.5628C3.32377 14.8906 4.26448 13.486 5.74305 12.4999C7.05661 11.6246 8.72053 11.1428 10.4287 11.1428C12.1369 11.1428 13.8009 11.6249 15.1144 12.4999C16.593 13.4856 17.5337 14.8903 17.8351 16.5624C17.9044 16.9456 17.8108 17.3246 17.5787 17.6021C17.4733 17.7284 17.341 17.8297 17.1915 17.8986C17.042 17.9674 16.879 18.002 16.7144 17.9999Z" fill="white"/>
</svg>
