<svg width="16" height="18" viewBox="0 0 16 18" fill="none" xmlns="http://www.w3.org/2000/svg">
<g clip-path="url(#clip0_2009_25)">
<path d="M8.00059 8.5C10.0006 8.5 11.8006 6.6 11.9006 4.3C12.0006 3.1 11.6006 2.1 10.9006 1.2C10.2006 0.4 9.10059 0 8.00059 0C6.90059 0 5.80059 0.4 5.10059 1.2C4.30059 2 4.00059 3.1 4.10059 4.3C4.20059 6.6 6.00059 8.5 8.00059 8.5ZM5.80059 1.9C6.40059 1.3 7.10059 1 8.00059 1C8.90059 1 9.60059 1.3 10.2006 1.9C10.8006 2.5 11.0006 3.3 11.0006 4.2C10.8006 6 9.50059 7.5 8.00059 7.5C6.50059 7.5 5.20059 6 5.10059 4.2C5.00059 3.3 5.30059 2.5 5.80059 1.9Z" fill="white"/>
<path d="M16.0004 15.8C15.3004 11.8 11.4004 10 8.00039 10C4.60039 10 0.700391 11.8 0.000390626 15.8C-0.0996094 16.2 0.000390619 16.6 0.300391 16.8C0.500391 17.1 0.800391 17.2 1.10039 17.2H14.9004C15.2004 17.2 15.5004 17.1 15.7004 16.8C16.0004 16.6 16.0004 16.2 16.0004 15.8ZM14.9004 16.3L1.00039 16.2C1.00039 16.2 0.900391 16.1 1.00039 16C1.60039 12.6 5.10039 11 8.00039 11C10.9004 11 14.4004 12.6 15.0004 16C15.0004 16.1 15.0004 16.2 14.9004 16.3Z" fill="white"/>
</g>
<defs>
<clipPath id="clip0_2009_25">
<rect width="16" height="17.3" fill="white"/>
</clipPath>
</defs>
</svg>
