<svg width="20" height="20" viewBox="0 0 20 20" fill="none" xmlns="http://www.w3.org/2000/svg">
<path d="M18.326 14.7585L16.2327 12.6652C15.4851 11.9176 14.2142 12.2167 13.9151 13.1885C13.6908 13.8614 12.9432 14.2352 12.2704 14.0856C10.7752 13.7118 8.75664 11.7681 8.38284 10.1981C8.15855 9.52522 8.60712 8.77761 9.27996 8.55336C10.2518 8.25432 10.5509 6.98339 9.80328 6.23578L7.70999 4.14249C7.11191 3.61917 6.21478 3.61917 5.69146 4.14249L4.27101 5.56294C2.85056 7.05815 4.42053 11.0205 7.93427 14.5342C11.448 18.0479 15.4103 19.6927 16.9055 18.1975L18.326 16.777C18.8493 16.1789 18.8493 15.2818 18.326 14.7585Z" fill="white"/>
</svg>
