<svg width="24" height="24" viewBox="0 0 24 24" fill="none" xmlns="http://www.w3.org/2000/svg">
<path fill-rule="evenodd" clip-rule="evenodd" d="M9.99911 11.165C10.4603 11.165 10.8342 11.5389 10.8342 12.0001V17.0001C10.8342 17.4613 10.4603 17.8351 9.99911 17.8351C9.53793 17.8351 9.16406 17.4613 9.16406 17.0001V12.0001C9.16406 11.5389 9.53793 11.165 9.99911 11.165Z" fill="white"/>
<path fill-rule="evenodd" clip-rule="evenodd" d="M13.9991 11.165C14.4603 11.165 14.8342 11.5389 14.8342 12.0001V17.0001C14.8342 17.4613 14.4603 17.8351 13.9991 17.8351C13.5379 17.8351 13.1641 17.4613 13.1641 17.0001V12.0001C13.1641 11.5389 13.5379 11.165 13.9991 11.165Z" fill="white"/>
<path fill-rule="evenodd" clip-rule="evenodd" d="M3.16406 7.00009C3.16406 6.5389 3.53793 6.16504 3.99911 6.16504H19.9991C20.4603 6.16504 20.8342 6.5389 20.8342 7.00009C20.8342 7.46127 20.4603 7.83514 19.9991 7.83514H3.99911C3.53793 7.83514 3.16406 7.46127 3.16406 7.00009Z" fill="white"/>
<path fill-rule="evenodd" clip-rule="evenodd" d="M5.99911 9.16504C6.4603 9.16504 6.83416 9.5389 6.83416 10.0001V18.0001C6.83416 19.1958 7.80344 20.165 8.99911 20.165H14.9991C16.1948 20.165 17.1641 19.1958 17.1641 18.0001V10.0001C17.1641 9.5389 17.5379 9.16504 17.9991 9.16504C18.4603 9.16504 18.8342 9.5389 18.8342 10.0001V18.0001C18.8342 20.1182 17.1172 21.8351 14.9991 21.8351H8.99911C6.88109 21.8351 5.16406 20.1182 5.16406 18.0001V10.0001C5.16406 9.5389 5.53793 9.16504 5.99911 9.16504Z" fill="white"/>
<path fill-rule="evenodd" clip-rule="evenodd" d="M10.9991 3.83514C10.3557 3.83514 9.83416 4.3567 9.83416 5.00009V6.16504H14.1641V5.00009C14.1641 4.3567 13.6425 3.83514 12.9991 3.83514H10.9991ZM8.16406 5.00009C8.16406 3.43433 9.43336 2.16504 10.9991 2.16504H12.9991C14.5649 2.16504 15.8342 3.43434 15.8342 5.00009V7.00009C15.8342 7.46127 15.4603 7.83514 14.9991 7.83514H8.99911C8.53793 7.83514 8.16406 7.46127 8.16406 7.00009V5.00009Z" fill="white"/>
</svg>
