<svg width="14" height="14" viewBox="0 0 14 14" fill="none" xmlns="http://www.w3.org/2000/svg">
<path fill-rule="evenodd" clip-rule="evenodd" d="M5.02193 0H6.92251C8.64064 0 8.85731 0.00760234 9.18421 0.0722222C9.38187 0.114035 9.65556 0.182456 9.7924 0.22807C9.92924 0.273684 10.1763 0.380117 10.3436 0.463743C10.5108 0.547368 10.7655 0.703216 10.9099 0.81345C11.0544 0.919883 11.3053 1.14795 11.4611 1.3152C11.6208 1.48626 11.8336 1.76754 11.9401 1.9424C12.0465 2.11725 12.1871 2.40994 12.2556 2.5924C12.3202 2.77485 12.4076 3.05234 12.4418 3.20439C12.4874 3.39825 12.5026 3.65292 12.5026 4.06725C12.5026 4.48158 12.4874 4.73626 12.4418 4.93392C12.4076 5.08216 12.3202 5.35965 12.2518 5.54211C12.1871 5.72456 12.0427 6.01725 11.9401 6.19211C11.8336 6.36696 11.6208 6.64825 11.4611 6.8193C11.3053 6.98655 11.0544 7.21462 10.9099 7.32485C10.7655 7.43129 10.469 7.60614 10.2485 7.71257C10.0281 7.8152 9.71257 7.93684 9.54532 7.97865C9.37807 8.02047 9.08538 8.07368 8.89912 8.09649C8.71287 8.1155 7.98684 8.1345 6.02924 8.1345V8.93275H7.63713C8.69766 8.93275 9.29444 8.94795 9.39327 8.97456C9.4807 9.00117 9.60994 9.08099 9.70117 9.17602C9.82281 9.29386 9.87222 9.38129 9.90643 9.54094C9.94444 9.71199 9.94444 9.78801 9.90263 9.95906C9.86842 10.1149 9.81521 10.2061 9.70117 10.324C9.58333 10.4418 9.49591 10.4912 9.34386 10.5216C9.21082 10.552 8.63684 10.5673 6.02924 10.5673V11.4871C6.02924 12.3804 6.02924 12.4146 5.94181 12.5819C5.87719 12.7035 5.79357 12.7871 5.64532 12.8784C5.48187 12.9772 5.39825 13 5.23099 13C5.06374 13 4.98012 12.9772 4.81667 12.8784C4.66842 12.7871 4.5848 12.7035 4.52018 12.5819C4.43275 12.4146 4.43275 12.3804 4.43275 10.5673L2.54357 10.5482L2.36111 10.4342C2.23947 10.3582 2.14825 10.2632 2.08743 10.1491C2.02281 10.0237 2 9.91725 2 9.75C2 9.61316 2.03041 9.46111 2.07222 9.36988C2.10643 9.28626 2.19386 9.17222 2.25848 9.1114C2.3269 9.05439 2.44474 8.99357 2.52456 8.97076C2.60058 8.95175 3.06433 8.93275 4.43275 8.93275V8.1345L2.54357 8.1155L2.36111 8.00146C2.23947 7.92544 2.14825 7.83041 2.08743 7.71637C2.02281 7.59094 2 7.4845 2 7.31725C2 7.18041 2.03041 7.02836 2.07222 6.93713C2.10643 6.85351 2.19386 6.73947 2.25848 6.67865C2.3269 6.62164 2.44474 6.56082 2.52456 6.53801C2.60058 6.51901 3.06433 6.5 4.43275 6.5V0.589181L4.52018 0.418129C4.5848 0.296491 4.66842 0.212866 4.81667 0.121637L5.02193 0ZM6.02924 6.5038C8.78889 6.48099 9.00175 6.46959 9.18421 6.41257C9.29825 6.37456 9.51111 6.27953 9.65936 6.20351C9.82661 6.11608 10.0243 5.96784 10.1915 5.80059C10.3968 5.59912 10.4994 5.45468 10.6211 5.2114C10.7085 5.03275 10.8035 4.78567 10.8377 4.66023C10.8681 4.5348 10.8947 4.26871 10.8947 4.07105C10.8947 3.86959 10.8681 3.60731 10.8377 3.48187C10.8035 3.35643 10.7085 3.10556 10.6211 2.9307C10.4994 2.68743 10.393 2.53918 10.1915 2.33772C9.99386 2.13626 9.84181 2.02982 9.60234 1.90819C9.42368 1.82076 9.1576 1.72573 9.01316 1.69532C8.80789 1.64971 8.43158 1.6383 7.38626 1.6383H6.02924V6.5038Z" fill="white"/>
</svg>
