<svg width="18" height="18" viewBox="0 0 18 18" fill="none" xmlns="http://www.w3.org/2000/svg">
<g clip-path="url(#clip0_2009_19)">
<path d="M17.2004 16.4L12.8004 12C13.0004 11.8 13.2004 11.5 13.4004 11.3C14.2004 10.1 14.6004 8.7 14.6004 7.3C14.6004 5.4 13.8004 3.5 12.5004 2.2C11.1004 0.8 9.20044 0 7.30044 0C5.90044 0 4.50044 0.4 3.30044 1.2C2.00044 2 1.10044 3.2 0.600444 4.5C0.000444293 5.8 -0.0995557 7.3 0.100444 8.7C0.400444 10.1 1.10044 11.4 2.10044 12.4C3.10044 13.4 4.40044 14.1 5.80044 14.4C6.30044 14.5 6.70044 14.5 7.20044 14.5C8.10044 14.5 9.10044 14.3 10.0004 13.9C10.7004 13.6 11.4004 13.2 12.0004 12.6L16.4004 17C16.5004 17.1 16.6004 17.1 16.8004 17.1C17.0004 17.1 17.1004 17.1 17.2004 17C17.4004 17 17.4004 16.6 17.2004 16.4ZM9.70044 13.1C8.50044 13.6 7.30044 13.7 6.10044 13.5C4.90044 13.3 3.80044 12.7 2.90044 11.8C2.00044 10.9 1.40044 9.8 1.20044 8.6C0.900444 7.3 1.00044 6 1.50044 4.9C2.00044 3.7 2.80044 2.8 3.80044 2.1C4.80044 1.4 6.00044 1 7.30044 1C9.00044 1 10.6004 1.7 11.7004 2.8C12.9004 4 13.5004 5.6 13.5004 7.2C13.5004 8.4 13.1004 9.7 12.4004 10.7C12.2004 11 11.9004 11.3 11.6004 11.6C11.1004 12.3 10.5004 12.8 9.70044 13.1Z" fill="white"/>
</g>
<defs>
<clipPath id="clip0_2009_19">
<rect width="17.3" height="17.3" fill="white"/>
</clipPath>
</defs>
</svg>
