<svg width="16" height="16" viewBox="0 0 16 16" fill="none" xmlns="http://www.w3.org/2000/svg">
<path d="M13.9753 4.16811L13.9541 3.83247L13.623 3.77327C11.306 3.35754 10.3387 3.057 8.17652 2.08036L8 2L7.82348 2.08036C5.66126 3.057 4.694 3.35754 2.37696 3.77327L2.04588 3.83247L2.02471 4.16811C1.92159 5.80504 2.1415 7.33027 2.67911 8.70147C3.11935 9.81994 3.77088 10.8432 4.5981 11.7152C6.03038 13.2348 7.55106 13.8949 7.84116 14.0116L8.00188 14.0762L8.16259 14.0116C8.45269 13.8949 9.97337 13.2348 11.4056 11.7152C12.2315 10.8428 12.8818 9.81964 13.3209 8.70147C13.8585 7.33027 14.0784 5.80504 13.9753 4.16811ZM7.20069 9.95401L5.25089 8.04252L5.85091 7.43018L7.14926 8.70227L10.0993 5.29502L10.7475 5.85593L7.20069 9.95401Z" fill="white"/>
</svg>
