<svg width="13" height="14" viewBox="0 0 13 14" fill="none" xmlns="http://www.w3.org/2000/svg">
<path d="M10.0048 12.6874C9.91928 12.6877 9.83585 12.6611 9.76637 12.6112L6.50089 10.2438L3.2354 12.6112C3.16563 12.6618 3.08158 12.6889 2.9954 12.6886C2.90922 12.6883 2.82537 12.6606 2.75597 12.6095C2.68658 12.5584 2.63523 12.4865 2.60936 12.4043C2.58349 12.3221 2.58443 12.2338 2.61206 12.1522L3.88565 8.37988L0.58487 6.11631C0.513373 6.06733 0.459411 5.99677 0.430869 5.91495C0.402326 5.83312 0.400699 5.74431 0.426225 5.66149C0.451752 5.57867 0.503093 5.50619 0.572749 5.45462C0.642404 5.40306 0.726723 5.37513 0.813386 5.3749H4.88553L6.11444 1.59297C6.14091 1.51132 6.19257 1.44015 6.262 1.38967C6.33142 1.3392 6.41505 1.31201 6.50089 1.31201C6.58672 1.31201 6.67035 1.3392 6.73978 1.38967C6.8092 1.44015 6.86086 1.51132 6.88733 1.59297L8.11624 5.37617H12.1884C12.2752 5.37613 12.3597 5.40387 12.4295 5.45533C12.4994 5.50679 12.5509 5.57927 12.5766 5.66215C12.6023 5.74503 12.6008 5.83396 12.5723 5.91592C12.5438 5.99787 12.4898 6.06854 12.4182 6.11757L9.11612 8.37988L10.389 12.1511C10.4096 12.2122 10.4154 12.2773 10.4059 12.341C10.3964 12.4048 10.3718 12.4653 10.3343 12.5177C10.2968 12.5701 10.2473 12.6128 10.19 12.6423C10.1327 12.6718 10.0692 12.6873 10.0048 12.6874Z" fill="white"/>
</svg>
