<svg width="16" height="16" viewBox="0 0 16 16" fill="none" xmlns="http://www.w3.org/2000/svg">
<path d="M11.9014 0.53418L11.9004 0.536133C11.867 0.567767 11.8318 0.592278 11.7969 0.613281L11.8115 1.02148L12.5996 1.03125L13.0117 1.03613L13.0146 1.05273C13.0878 1.04629 13.1816 1.04258 13.2979 1.04004C13.6082 1.03325 14.1854 1.03125 15.25 1.03125H15.3096C15.3079 0.882431 15.3055 0.776737 15.3018 0.700195C15.2987 0.639222 15.2949 0.605968 15.293 0.59082C15.2903 0.585911 15.2872 0.579518 15.2832 0.573242C15.2782 0.565451 15.2733 0.559312 15.2705 0.555664L15.2646 0.549805C15.2586 0.544605 15.2496 0.537961 15.2393 0.530273C15.2334 0.525939 15.2274 0.52155 15.2217 0.517578C15.1948 0.514907 15.1465 0.51148 15.0625 0.508789C14.8289 0.501314 14.4043 0.5 13.5781 0.5C12.7563 0.5 12.3315 0.5013 12.0967 0.508789C11.9997 0.511886 11.9498 0.516619 11.9248 0.519531C11.9188 0.523187 11.9131 0.526969 11.9082 0.530273C11.9055 0.532098 11.9029 0.533058 11.9014 0.53418ZM11.9014 0.53418C11.9029 0.53291 11.906 0.531228 11.9092 0.52832C11.9115 0.526232 11.9143 0.523116 11.918 0.519531H11.916L11.9014 0.53418ZM9.65625 15.4688V15.5H7.34375V15.4688H9.65625ZM3.41602 0.5C4.24058 0.5 4.66676 0.501302 4.90234 0.508789C4.9986 0.51185 5.04875 0.51662 5.07422 0.519531C5.08053 0.523332 5.08668 0.526839 5.0918 0.530273C5.09332 0.531294 5.09454 0.532395 5.0957 0.533203C5.12963 0.566251 5.16638 0.590625 5.20215 0.612305L5.1875 1.02148L4.40039 1.03125L3.99121 1.03613L3.98828 1.04883C3.94327 1.04439 3.89741 1.04181 3.85449 1.04004C3.68118 1.03288 3.38455 1.03125 2.89355 1.03125H1.6875V1.02148C1.6875 0.805627 1.69028 0.697952 1.69629 0.633789C1.6984 0.611299 1.70065 0.601066 1.70117 0.598633L1.70215 0.597656C1.70281 0.596405 1.70388 0.593514 1.70605 0.589844C1.71013 0.582974 1.71601 0.575391 1.72168 0.567383L1.73438 0.549805L1.73535 0.548828C1.73535 0.548828 1.73686 0.547955 1.73926 0.545898C1.74157 0.543917 1.74433 0.541058 1.74805 0.538086C1.7546 0.532852 1.76251 0.527261 1.77051 0.521484C1.80828 0.518248 1.86962 0.513592 1.96875 0.510742C2.21867 0.503561 2.64975 0.501568 3.41602 0.5ZM5.08301 0.519531C5.08478 0.521366 5.08611 0.523592 5.08789 0.525391C5.08601 0.523637 5.08348 0.521919 5.08105 0.519531H5.08301ZM5.08105 0.517578C5.08012 0.517304 5.07916 0.516926 5.07812 0.516602C5.07417 0.512617 5.06909 0.507288 5.06348 0.500977V0.5C5.06902 0.506302 5.0754 0.511656 5.08105 0.517578Z" fill="#999999" stroke="#999999"/>
</svg>
