<svg width="26" height="26" viewBox="0 0 26 26" fill="none" xmlns="http://www.w3.org/2000/svg">
<path d="M23.8327 22.75V20.5833C23.8327 18.5642 22.4517 16.8676 20.5827 16.3865M16.791 3.56499C18.3791 4.20782 19.4993 5.76475 19.4993 7.58333C19.4993 9.40191 18.3791 10.9588 16.791 11.6017M18.416 22.75C18.416 20.7309 18.416 19.7214 18.0862 18.925C17.6464 17.8633 16.8028 17.0197 15.741 16.5799C14.9446 16.25 13.9351 16.25 11.916 16.25H8.66602C6.64694 16.25 5.6374 16.25 4.84105 16.5799C3.77927 17.0197 2.93568 17.8633 2.49587 18.925C2.16602 19.7214 2.16602 20.7309 2.16602 22.75M14.6243 7.58333C14.6243 9.97657 12.6842 11.9167 10.291 11.9167C7.89778 11.9167 5.95768 9.97657 5.95768 7.58333C5.95768 5.1901 7.89778 3.25 10.291 3.25C12.6842 3.25 14.6243 5.1901 14.6243 7.58333Z" stroke="white" stroke-width="2" stroke-linecap="round" stroke-linejoin="round"/>
</svg>
